<?xml version="1.0" encoding="UTF-8"?>
<svg width="191px" height="102px" viewBox="0 0 191 102" version="1.1" xmlns="http://www.w3.org/2000/svg" xmlns:xlink="http://www.w3.org/1999/xlink">
    <!-- Generator: Sketch 54.1 (76490) - https://sketchapp.com -->
    <title>Vecteezy-050718-13940-43 Copy</title>
    <desc>Created with Sketch.</desc>
    <defs>
        <path d="M64.019,127.477 C60.526,127.477 56.989,127.187 53.429,126.588 C18.936,120.781 -4.319,88.111 1.487,53.618 C6.696,22.685 33.51,0.789 63.866,0.789 C67.36,0.789 70.897,1.078 74.457,1.677 C108.95,7.484 132.205,40.154 126.398,74.647 C121.19,105.58 94.376,127.477 64.019,127.477 M84.209,66.365 C84.209,66.365 75.445,69.732 67.908,69.988 C67.908,69.988 67.12,73.329 59.067,84.213 C59.067,84.213 62.586,86.494 66.186,87.615 C67.306,87.966 68.177,88.18 69.271,88.257 C69.302,88.259 69.334,88.26 69.367,88.26 C70.956,88.26 74.935,85.848 78.243,83.164 C83.149,79.185 85.443,75.888 85.602,74.631 C85.911,72.173 84.209,66.365 84.209,66.365 M38.481,58.415 C38.481,58.415 32.414,65.229 30.654,69.377 C30.654,69.377 30.15,71.026 33.979,75.874 C37.806,80.717 39.751,82.995 40.577,83.271 C40.577,83.271 43.143,84.392 48.97,84.392 C51.518,84.392 54.688,84.178 58.542,83.562 C58.542,83.562 63.822,78.431 66.94,70.048 L58.116,59.162 C58.116,59.162 55.278,59.37 51.349,59.37 C47.555,59.37 42.743,59.177 38.481,58.415" id="path-1"></path>
    </defs>
    <g id="Page-1" stroke="none" stroke-width="1" fill="none" fill-rule="evenodd">
        <g id="Desktop-HD-Copy" transform="translate(-672.000000, -208.000000)">
            <g id="Vecteezy-050718-13940-43-Copy" transform="translate(672.000000, 205.000000)">
                <g id="Group-5" transform="translate(92.000000, 0.000000)">
                    <mask id="mask-2" fill="white">
                        <use xlink:href="#path-1"></use>
                    </mask>
                    <g id="Clip-4"></g>
                    <path d="M64.019,127.477 C60.526,127.477 56.989,127.187 53.429,126.588 C18.936,120.781 -4.319,88.111 1.487,53.618 C6.696,22.685 33.51,0.789 63.866,0.789 C67.36,0.789 70.897,1.078 74.457,1.677 C108.95,7.484 132.205,40.154 126.398,74.647 C121.19,105.58 94.376,127.477 64.019,127.477 M84.209,66.365 C84.209,66.365 75.445,69.732 67.908,69.988 C67.908,69.988 67.12,73.329 59.067,84.213 C59.067,84.213 62.586,86.494 66.186,87.615 C67.306,87.966 68.177,88.18 69.271,88.257 C69.302,88.259 69.334,88.26 69.367,88.26 C70.956,88.26 74.935,85.848 78.243,83.164 C83.149,79.185 85.443,75.888 85.602,74.631 C85.911,72.173 84.209,66.365 84.209,66.365 M38.481,58.415 C38.481,58.415 32.414,65.229 30.654,69.377 C30.654,69.377 30.15,71.026 33.979,75.874 C37.806,80.717 39.751,82.995 40.577,83.271 C40.577,83.271 43.143,84.392 48.97,84.392 C51.518,84.392 54.688,84.178 58.542,83.562 C58.542,83.562 63.822,78.431 66.94,70.048 L58.116,59.162 C58.116,59.162 55.278,59.37 51.349,59.37 C47.555,59.37 42.743,59.177 38.481,58.415" id="Fill-3" mask="url(#mask-2)"></path>
                </g>
                <path d="M2.125,96.743 C2.125,97.075 1.855,97.345 1.523,97.345 C1.19,97.345 0.922,97.075 0.922,96.743 C0.922,96.411 1.19,96.141 1.523,96.141 C1.855,96.141 2.125,96.411 2.125,96.743" id="Fill-28" fill="#FFFFFE"></path>
                <polyline id="Fill-29" fill="#FFFFFE" points="6.034 95.538 5.916 95.656 5.798 95.538 5.916 95.42 6.034 95.538"></polyline>
                <path d="M10.3,84.054 C10.3,84.151 10.222,84.228 10.126,84.228 C10.03,84.228 9.952,84.151 9.952,84.054 C9.952,83.959 10.03,83.881 10.126,83.881 C10.222,83.881 10.3,83.959 10.3,84.054" id="Fill-30" fill="#FFFFFE"></path>
                <path d="M3.104,68.634 C3.104,68.944 2.853,69.195 2.544,69.195 C2.234,69.195 1.984,68.944 1.984,68.634 C1.984,68.324 2.234,68.074 2.544,68.074 C2.853,68.074 3.104,68.324 3.104,68.634" id="Fill-31" fill="#FFFFFE"></path>
                <path d="M15.076,81.323 C15.076,81.681 14.787,81.97 14.43,81.97 C14.072,81.97 13.783,81.681 13.783,81.323 C13.783,80.967 14.072,80.677 14.43,80.677 C14.787,80.677 15.076,80.967 15.076,81.323" id="Fill-32" fill="#FFFFFE"></path>
                <path d="M21.659,84.702 C21.659,84.915 21.486,85.087 21.274,85.087 C21.063,85.087 20.891,84.915 20.891,84.702 C20.891,84.49 21.063,84.319 21.274,84.319 C21.486,84.319 21.659,84.49 21.659,84.702" id="Fill-33" fill="#FFFFFE"></path>
                <path d="M19.811,73.081 C19.811,73.251 19.673,73.388 19.503,73.388 C19.333,73.388 19.195,73.251 19.195,73.081 C19.195,72.911 19.333,72.774 19.503,72.774 C19.673,72.774 19.811,72.911 19.811,73.081" id="Fill-34" fill="#FFFFFE"></path>
                <polyline id="Fill-35" fill="#FFFFFE" points="34.888 92.612 34.734 92.766 34.581 92.612 34.734 92.459 34.888 92.612"></polyline>
                <path d="M39.123,90.877 C39.123,91.12 38.926,91.317 38.683,91.317 C38.439,91.317 38.242,91.12 38.242,90.877 C38.242,90.634 38.439,90.437 38.683,90.437 C38.926,90.437 39.123,90.634 39.123,90.877" id="Fill-36" fill="#FFFFFE"></path>
                <path d="M25.582,56.87 C25.582,56.99 25.484,57.088 25.364,57.088 C25.244,57.088 25.146,56.99 25.146,56.87 C25.146,56.75 25.244,56.653 25.364,56.653 C25.484,56.653 25.582,56.75 25.582,56.87" id="Fill-37" fill="#FFFFFE"></path>
                <path d="M39.072,74.044 C39.072,74.327 38.843,74.556 38.561,74.556 C38.277,74.556 38.049,74.327 38.049,74.044 C38.049,73.761 38.277,73.532 38.561,73.532 C38.843,73.532 39.072,73.761 39.072,74.044" id="Fill-38" fill="#FFFFFE"></path>
                <polyline id="Fill-39" fill="#FFFFFE" points="41.895 72.595 41.803 72.687 41.711 72.595 41.803 72.503 41.895 72.595"></polyline>
                <path d="M50.578,79.499 C50.578,79.626 50.476,79.729 50.349,79.729 C50.222,79.729 50.118,79.626 50.118,79.499 C50.118,79.372 50.222,79.269 50.349,79.269 C50.476,79.269 50.578,79.372 50.578,79.499" id="Fill-40" fill="#FFFFFE"></path>
                <path d="M47.035,64.496 C47.035,64.865 46.736,65.165 46.366,65.165 C45.997,65.165 45.697,64.865 45.697,64.496 C45.697,64.127 45.997,63.827 46.366,63.827 C46.736,63.827 47.035,64.127 47.035,64.496" id="Fill-41" fill="#FFFFFE"></path>
                <path d="M49.707,60.638 C49.707,60.988 49.423,61.272 49.073,61.272 C48.723,61.272 48.439,60.988 48.439,60.638 C48.439,60.288 48.723,60.005 49.073,60.005 C49.423,60.005 49.707,60.288 49.707,60.638" id="Fill-42" fill="#FFFFFE"></path>
                <path d="M51.951,56.936 C51.951,57.318 51.642,57.628 51.26,57.628 C50.878,57.628 50.568,57.318 50.568,56.936 C50.568,56.554 50.878,56.244 51.26,56.244 C51.642,56.244 51.951,56.554 51.951,56.936" id="Fill-43" fill="#FFFFFE"></path>
                <path d="M63.584,70.755 C63.584,71.111 63.295,71.4 62.938,71.4 C62.581,71.4 62.292,71.111 62.292,70.755 C62.292,70.398 62.581,70.109 62.938,70.109 C63.295,70.109 63.584,70.398 63.584,70.755" id="Fill-44" fill="#FFFFFE"></path>
                <path d="M66.939,74.614 C66.939,74.872 66.729,75.082 66.471,75.082 C66.213,75.082 66.003,74.872 66.003,74.614 C66.003,74.355 66.213,74.145 66.471,74.145 C66.729,74.145 66.939,74.355 66.939,74.614" id="Fill-45" fill="#FFFFFE"></path>
                <polyline id="Fill-46" fill="#FFFFFE" points="69.794 69.523 69.633 69.684 69.473 69.523 69.633 69.363 69.794 69.523"></polyline>
                <polyline id="Fill-47" fill="#FFFFFE" points="70.287 71.628 70.146 71.768 70.006 71.628 70.146 71.488 70.287 71.628"></polyline>
                <path d="M76.63,57.265 C76.63,57.398 76.521,57.506 76.389,57.506 C76.256,57.506 76.147,57.398 76.147,57.265 C76.147,57.132 76.256,57.024 76.389,57.024 C76.521,57.024 76.63,57.132 76.63,57.265" id="Fill-48" fill="#FFFFFE"></path>
                <path d="M80.869,55.168 C80.869,55.281 80.778,55.372 80.665,55.372 C80.552,55.372 80.461,55.281 80.461,55.168 C80.461,55.055 80.552,54.964 80.665,54.964 C80.778,54.964 80.869,55.055 80.869,55.168" id="Fill-49" fill="#FFFFFE"></path>
                <polyline id="Fill-50" fill="#FFFFFE" points="77.385 70.109 77.263 70.231 77.141 70.109 77.263 69.986 77.385 70.109"></polyline>
                <polyline id="Fill-51" fill="#FFFFFE" points="83.117 69.79 82.982 69.926 82.847 69.79 82.982 69.655 83.117 69.79"></polyline>
                <path d="M82.438,84.863 C82.438,85.239 82.134,85.544 81.758,85.544 C81.382,85.544 81.077,85.239 81.077,84.863 C81.077,84.487 81.382,84.182 81.758,84.182 C82.134,84.182 82.438,84.487 82.438,84.863" id="Fill-52" fill="#FFFFFE"></path>
                <polyline id="Fill-53" fill="#FFFFFE" points="77.958 85.149 77.883 85.224 77.808 85.149 77.883 85.073 77.958 85.149"></polyline>
                <path d="M69.152,61.308 C69.152,61.403 69.075,61.479 68.98,61.479 C68.886,61.479 68.809,61.403 68.809,61.308 C68.809,61.213 68.886,61.136 68.98,61.136 C69.075,61.136 69.152,61.213 69.152,61.308" id="Fill-54" fill="#FFFFFE"></path>
                <path d="M69.843,83.022 C69.843,83.19 69.706,83.326 69.538,83.326 C69.37,83.326 69.233,83.19 69.233,83.022 C69.233,82.853 69.37,82.717 69.538,82.717 C69.706,82.717 69.843,82.853 69.843,83.022" id="Fill-55" fill="#FFFFFE"></path>
                <path d="M61.11,59.531 C61.11,59.622 61.036,59.696 60.945,59.696 C60.854,59.696 60.781,59.622 60.781,59.531 C60.781,59.44 60.854,59.366 60.945,59.366 C61.036,59.366 61.11,59.44 61.11,59.531" id="Fill-56" fill="#FFFFFE"></path>
                <path d="M62.262,79.906 C62.262,80.251 61.982,80.531 61.637,80.531 C61.291,80.531 61.011,80.251 61.011,79.906 C61.011,79.56 61.291,79.28 61.637,79.28 C61.982,79.28 62.262,79.56 62.262,79.906" id="Fill-57" fill="#FFFFFE"></path>
                <path d="M59.467,85.988 C59.467,86.194 59.3,86.36 59.095,86.36 C58.889,86.36 58.723,86.194 58.723,85.988 C58.723,85.782 58.889,85.616 59.095,85.616 C59.3,85.616 59.467,85.782 59.467,85.988" id="Fill-58" fill="#FFFFFE"></path>
                <path d="M55.657,86.788 C55.657,86.985 55.498,87.145 55.302,87.145 C55.104,87.145 54.945,86.985 54.945,86.788 C54.945,86.592 55.104,86.432 55.302,86.432 C55.498,86.432 55.657,86.592 55.657,86.788" id="Fill-59" fill="#FFFFFE"></path>
                <path d="M52.367,91.07 C52.367,91.382 52.114,91.634 51.803,91.634 C51.49,91.634 51.238,91.382 51.238,91.07 C51.238,90.758 51.49,90.505 51.803,90.505 C52.114,90.505 52.367,90.758 52.367,91.07" id="Fill-60" fill="#FFFFFE"></path>
                <path d="M41.463,84.929 C41.463,85.291 41.17,85.584 40.809,85.584 C40.446,85.584 40.153,85.291 40.153,84.929 C40.153,84.567 40.446,84.274 40.809,84.274 C41.17,84.274 41.463,84.567 41.463,84.929" id="Fill-61" fill="#FFFFFE"></path>
                <path d="M29.672,63.957 C29.672,64.288 29.404,64.556 29.073,64.556 C28.743,64.556 28.475,64.288 28.475,63.957 C28.475,63.627 28.743,63.359 29.073,63.359 C29.404,63.359 29.672,63.627 29.672,63.957" id="Fill-62" fill="#FFFFFE"></path>
                <path d="M37.603,56.463 C37.603,56.608 37.485,56.725 37.341,56.725 C37.196,56.725 37.079,56.608 37.079,56.463 C37.079,56.319 37.196,56.201 37.341,56.201 C37.485,56.201 37.603,56.319 37.603,56.463" id="Fill-63" fill="#FFFFFE"></path>
                <path d="M48.938,72.295 C48.938,72.397 48.854,72.48 48.753,72.48 C48.65,72.48 48.567,72.397 48.567,72.295 C48.567,72.193 48.65,72.11 48.753,72.11 C48.854,72.11 48.938,72.193 48.938,72.295" id="Fill-64" fill="#FFFFFE"></path>
                <polyline id="Fill-65" fill="#FFFFFE" points="53.96 64.843 53.896 64.906 53.832 64.843 53.896 64.78 53.96 64.843"></polyline>
                <polyline id="Fill-66" fill="#FFFFFE" points="56.649 72.2 56.579 72.27 56.509 72.2 56.579 72.129 56.649 72.2"></polyline>
                <path d="M61.607,68.76 C61.607,69.06 61.364,69.302 61.064,69.302 C60.765,69.302 60.522,69.06 60.522,68.76 C60.522,68.46 60.765,68.218 61.064,68.218 C61.364,68.218 61.607,68.46 61.607,68.76" id="Fill-67" fill="#FFFFFE"></path>
                <path d="M65.02,73.284 C65.02,73.494 64.85,73.665 64.64,73.665 C64.43,73.665 64.259,73.494 64.259,73.284 C64.259,73.074 64.43,72.904 64.64,72.904 C64.85,72.904 65.02,73.074 65.02,73.284" id="Fill-68" fill="#FFFFFE"></path>
                <path d="M70.502,62.292 C70.502,62.432 70.389,62.546 70.248,62.546 C70.108,62.546 69.994,62.432 69.994,62.292 C69.994,62.152 70.108,62.038 70.248,62.038 C70.389,62.038 70.502,62.152 70.502,62.292" id="Fill-69" fill="#FFFFFE"></path>
                <path d="M72.355,77.702 C72.355,77.941 72.161,78.135 71.922,78.135 C71.683,78.135 71.489,77.941 71.489,77.702 C71.489,77.463 71.683,77.269 71.922,77.269 C72.161,77.269 72.355,77.463 72.355,77.702" id="Fill-70" fill="#FFFFFE"></path>
                <path d="M73.807,84.715 C73.807,84.892 73.663,85.035 73.486,85.035 C73.31,85.035 73.167,84.892 73.167,84.715 C73.167,84.539 73.31,84.395 73.486,84.395 C73.663,84.395 73.807,84.539 73.807,84.715" id="Fill-71" fill="#FFFFFE"></path>
                <path d="M83.93,67.272 C83.93,67.493 83.751,67.673 83.529,67.673 C83.308,67.673 83.129,67.493 83.129,67.272 C83.129,67.051 83.308,66.871 83.529,66.871 C83.751,66.871 83.93,67.051 83.93,67.272" id="Fill-72" fill="#FFFFFE"></path>
                <path d="M81.226,85.028 C81.226,85.263 81.035,85.454 80.8,85.454 C80.564,85.454 80.373,85.263 80.373,85.028 C80.373,84.793 80.564,84.602 80.8,84.602 C81.035,84.602 81.226,84.793 81.226,85.028" id="Fill-73" fill="#FFFFFE"></path>
                <path d="M87.747,77.782 C87.747,78.054 87.526,78.275 87.254,78.275 C86.982,78.275 86.762,78.054 86.762,77.782 C86.762,77.51 86.982,77.29 87.254,77.29 C87.526,77.29 87.747,77.51 87.747,77.782" id="Fill-74" fill="#FFFFFE"></path>
                <path d="M88.325,85.933 C88.325,86.134 88.162,86.297 87.962,86.297 C87.761,86.297 87.599,86.134 87.599,85.933 C87.599,85.733 87.761,85.57 87.962,85.57 C88.162,85.57 88.325,85.733 88.325,85.933" id="Fill-75" fill="#FFFFFE"></path>
                <path d="M95.339,77.206 C95.339,77.401 95.182,77.558 94.987,77.558 C94.793,77.558 94.636,77.401 94.636,77.206 C94.636,77.012 94.793,76.855 94.987,76.855 C95.182,76.855 95.339,77.012 95.339,77.206" id="Fill-76" fill="#FFFFFE"></path>
                <path d="M92.931,95.584 C92.931,95.962 92.623,96.269 92.245,96.269 C91.866,96.269 91.56,95.962 91.56,95.584 C91.56,95.205 91.866,94.898 92.245,94.898 C92.623,94.898 92.931,95.205 92.931,95.584" id="Fill-77" fill="#FFFFFE"></path>
                <path d="M104.746,74.668 C104.746,74.951 104.517,75.18 104.234,75.18 C103.951,75.18 103.723,74.951 103.723,74.668 C103.723,74.385 103.951,74.156 104.234,74.156 C104.517,74.156 104.746,74.385 104.746,74.668" id="Fill-78" fill="#FFFFFE"></path>
                <path d="M100.891,70.624 C100.891,70.84 100.716,71.015 100.5,71.015 C100.283,71.015 100.108,70.84 100.108,70.624 C100.108,70.408 100.283,70.233 100.5,70.233 C100.716,70.233 100.891,70.408 100.891,70.624" id="Fill-79" fill="#FFFFFE"></path>
                <path d="M96.376,71.317 C96.376,71.459 96.26,71.574 96.118,71.574 C95.976,71.574 95.859,71.459 95.859,71.317 C95.859,71.174 95.976,71.059 96.118,71.059 C96.26,71.059 96.376,71.174 96.376,71.317" id="Fill-80" fill="#FFFFFE"></path>
                <path d="M96.556,65.668 C96.556,66.054 96.242,66.367 95.856,66.367 C95.47,66.367 95.157,66.054 95.157,65.668 C95.157,65.281 95.47,64.969 95.856,64.969 C96.242,64.969 96.556,65.281 96.556,65.668" id="Fill-81" fill="#FFFFFE"></path>
                <path d="M120.896,82.549 C120.896,82.796 120.696,82.996 120.449,82.996 C120.202,82.996 120.002,82.796 120.002,82.549 C120.002,82.302 120.202,82.102 120.449,82.102 C120.696,82.102 120.896,82.302 120.896,82.549" id="Fill-82" fill="#FFFFFE"></path>
                <polyline id="Fill-83" fill="#FFFFFE" points="127.438 83.166 127.391 83.212 127.345 83.166 127.391 83.119 127.438 83.166"></polyline>
                <path d="M108.704,68.629 C108.704,68.741 108.612,68.833 108.5,68.833 C108.387,68.833 108.296,68.741 108.296,68.629 C108.296,68.516 108.387,68.425 108.5,68.425 C108.612,68.425 108.704,68.516 108.704,68.629" id="Fill-84" fill="#FFFFFE"></path>
                <path d="M128.982,67.139 C128.982,67.314 128.841,67.455 128.666,67.455 C128.492,67.455 128.351,67.314 128.351,67.139 C128.351,66.964 128.492,66.823 128.666,66.823 C128.841,66.823 128.982,66.964 128.982,67.139" id="Fill-85" fill="#FFFFFE"></path>
                <polyline id="Fill-86" fill="#FFFFFE" points="114.489 64.885 114.341 65.033 114.192 64.885 114.341 64.737 114.489 64.885"></polyline>
                <path d="M101.796,81.104 C101.796,81.472 101.497,81.77 101.129,81.77 C100.762,81.77 100.463,81.472 100.463,81.104 C100.463,80.736 100.762,80.438 101.129,80.438 C101.497,80.438 101.796,80.736 101.796,81.104" id="Fill-87" fill="#FFFFFE"></path>
                <path d="M106.658,64.331 C106.658,64.464 106.551,64.571 106.418,64.571 C106.286,64.571 106.179,64.464 106.179,64.331 C106.179,64.199 106.286,64.092 106.418,64.092 C106.551,64.092 106.658,64.199 106.658,64.331" id="Fill-88" fill="#FFFFFE"></path>
                <polyline id="Fill-89" fill="#FFFFFE" points="88.713 71.983 88.604 72.092 88.495 71.983 88.604 71.874 88.713 71.983"></polyline>
                <path d="M102.786,55.19 C102.786,55.482 102.55,55.718 102.259,55.718 C101.967,55.718 101.73,55.482 101.73,55.19 C101.73,54.898 101.967,54.662 102.259,54.662 C102.55,54.662 102.786,54.898 102.786,55.19" id="Fill-90" fill="#FFFFFE"></path>
                <path d="M99.652,51.128 C99.652,51.401 99.431,51.622 99.158,51.622 C98.885,51.622 98.664,51.401 98.664,51.128 C98.664,50.855 98.885,50.634 99.158,50.634 C99.431,50.634 99.652,50.855 99.652,51.128" id="Fill-91" fill="#FFFFFE"></path>
                <path d="M113.313,43.789 C113.313,43.909 113.215,44.007 113.095,44.007 C112.975,44.007 112.877,43.909 112.877,43.789 C112.877,43.668 112.975,43.571 113.095,43.571 C113.215,43.571 113.313,43.668 113.313,43.789" id="Fill-92" fill="#FFFFFE"></path>
                <path d="M113.719,44.59 C113.719,44.919 113.451,45.186 113.122,45.186 C112.792,45.186 112.525,44.919 112.525,44.59 C112.525,44.26 112.792,43.993 113.122,43.993 C113.451,43.993 113.719,44.26 113.719,44.59" id="Fill-93" fill="#FFFFFE"></path>
                <path d="M114.047,40.984 C114.047,41.185 113.884,41.348 113.683,41.348 C113.481,41.348 113.318,41.185 113.318,40.984 C113.318,40.782 113.481,40.619 113.683,40.619 C113.884,40.619 114.047,40.782 114.047,40.984" id="Fill-94" fill="#FFFFFE"></path>
                <polyline id="Fill-95" fill="#FFFFFE" points="98.85 33.147 98.773 33.222 98.698 33.147 98.773 33.071 98.85 33.147"></polyline>
                <polyline id="Fill-96" fill="#FFFFFE" points="93.604 21.837 93.545 21.896 93.486 21.837 93.545 21.779 93.604 21.837"></polyline>
                <path d="M105.755,15.868 C105.755,16.126 105.546,16.335 105.287,16.335 C105.029,16.335 104.82,16.126 104.82,15.868 C104.82,15.61 105.029,15.401 105.287,15.401 C105.546,15.401 105.755,15.61 105.755,15.868" id="Fill-97" fill="#FFFFFE"></path>
                <path d="M126.373,14.56 C126.373,14.91 126.09,15.194 125.739,15.194 C125.39,15.194 125.106,14.91 125.106,14.56 C125.106,14.21 125.39,13.927 125.739,13.927 C126.09,13.927 126.373,14.21 126.373,14.56" id="Fill-98" fill="#FFFFFE"></path>
                <path d="M122.675,23.468 C122.675,23.694 122.491,23.877 122.266,23.877 C122.039,23.877 121.856,23.694 121.856,23.468 C121.856,23.241 122.039,23.058 122.266,23.058 C122.491,23.058 122.675,23.241 122.675,23.468" id="Fill-99" fill="#FFFFFE"></path>
                <path d="M131.801,33.459 C131.801,33.569 131.712,33.658 131.602,33.658 C131.491,33.658 131.401,33.569 131.401,33.459 C131.401,33.348 131.491,33.259 131.602,33.259 C131.712,33.259 131.801,33.348 131.801,33.459" id="Fill-100" fill="#FFFFFE"></path>
                <path d="M137.424,41.158 C137.424,41.392 137.233,41.582 136.999,41.582 C136.765,41.582 136.574,41.392 136.574,41.158 C136.574,40.923 136.765,40.733 136.999,40.733 C137.233,40.733 137.424,40.923 137.424,41.158" id="Fill-101" fill="#FFFFFE"></path>
                <polyline id="Fill-102" fill="#FFFFFE" points="118.332 41.859 118.291 41.9 118.25 41.859 118.291 41.818 118.332 41.859"></polyline>
                <path d="M121.601,49.892 C121.601,50.173 121.373,50.4 121.092,50.4 C120.812,50.4 120.584,50.173 120.584,49.892 C120.584,49.611 120.812,49.384 121.092,49.384 C121.373,49.384 121.601,49.611 121.601,49.892" id="Fill-103" fill="#FFFFFE"></path>
                <path d="M126.947,66.169 C126.947,66.559 126.632,66.875 126.241,66.875 C125.852,66.875 125.536,66.559 125.536,66.169 C125.536,65.779 125.852,65.463 126.241,65.463 C126.632,65.463 126.947,65.779 126.947,66.169" id="Fill-104" fill="#FFFFFE"></path>
                <path d="M115.363,66.391 C115.363,66.678 115.13,66.911 114.843,66.911 C114.555,66.911 114.322,66.678 114.322,66.391 C114.322,66.103 114.555,65.87 114.843,65.87 C115.13,65.87 115.363,66.103 115.363,66.391" id="Fill-105" fill="#FFFFFE"></path>
                <path d="M103.044,36.885 C103.044,37.113 102.859,37.298 102.631,37.298 C102.403,37.298 102.218,37.113 102.218,36.885 C102.218,36.657 102.403,36.472 102.631,36.472 C102.859,36.472 103.044,36.657 103.044,36.885" id="Fill-106" fill="#FFFFFE"></path>
                <path d="M101.815,72.322 C101.815,72.425 101.731,72.51 101.628,72.51 C101.523,72.51 101.439,72.425 101.439,72.322 C101.439,72.218 101.523,72.133 101.628,72.133 C101.731,72.133 101.815,72.218 101.815,72.322" id="Fill-107" fill="#FFFFFE"></path>
                <polyline id="Fill-108" fill="#FFFFFE" points="94.243 36.844 94.197 36.89 94.151 36.844 94.197 36.799 94.243 36.844"></polyline>
                <path d="M91.88,49.129 C91.88,49.393 91.666,49.608 91.402,49.608 C91.138,49.608 90.924,49.393 90.924,49.129 C90.924,48.865 91.138,48.651 91.402,48.651 C91.666,48.651 91.88,48.865 91.88,49.129" id="Fill-109" fill="#FFFFFE"></path>
                <path d="M89.954,46.826 C89.954,47.015 89.801,47.169 89.611,47.169 C89.421,47.169 89.268,47.015 89.268,46.826 C89.268,46.636 89.421,46.483 89.611,46.483 C89.801,46.483 89.954,46.636 89.954,46.826" id="Fill-110" fill="#FFFFFE"></path>
                <path d="M81.225,59.358 C81.225,59.642 80.994,59.873 80.71,59.873 C80.426,59.873 80.196,59.642 80.196,59.358 C80.196,59.074 80.426,58.844 80.71,58.844 C80.994,58.844 81.225,59.074 81.225,59.358" id="Fill-111" fill="#FFFFFE"></path>
                <path d="M85.629,43.714 C85.629,43.81 85.551,43.888 85.455,43.888 C85.358,43.888 85.28,43.81 85.28,43.714 C85.28,43.617 85.358,43.539 85.455,43.539 C85.551,43.539 85.629,43.617 85.629,43.714" id="Fill-112" fill="#FFFFFE"></path>
                <path d="M73.129,49.462 C73.129,49.677 72.954,49.851 72.739,49.851 C72.523,49.851 72.35,49.677 72.35,49.462 C72.35,49.246 72.523,49.072 72.739,49.072 C72.954,49.072 73.129,49.246 73.129,49.462" id="Fill-113" fill="#FFFFFE"></path>
                <polyline id="Fill-114" fill="#FFFFFE" points="76.563 41.15 76.424 41.29 76.283 41.15 76.424 41.01 76.563 41.15"></polyline>
                <path d="M60.905,27.707 C60.905,27.886 60.76,28.032 60.58,28.032 C60.4,28.032 60.255,27.886 60.255,27.707 C60.255,27.527 60.4,27.382 60.58,27.382 C60.76,27.382 60.905,27.527 60.905,27.707" id="Fill-115" fill="#FFFFFE"></path>
                <path d="M79.344,32.108 C79.344,32.499 79.027,32.815 78.637,32.815 C78.246,32.815 77.93,32.499 77.93,32.108 C77.93,31.718 78.246,31.401 78.637,31.401 C79.027,31.401 79.344,31.718 79.344,32.108" id="Fill-116" fill="#FFFFFE"></path>
                <path d="M81.354,43.538 C81.354,43.753 81.181,43.927 80.966,43.927 C80.75,43.927 80.576,43.753 80.576,43.538 C80.576,43.323 80.75,43.148 80.966,43.148 C81.181,43.148 81.354,43.323 81.354,43.538" id="Fill-117" fill="#FFFFFE"></path>
                <path d="M84.851,44.526 C84.851,44.729 84.686,44.894 84.482,44.894 C84.279,44.894 84.114,44.729 84.114,44.526 C84.114,44.323 84.279,44.158 84.482,44.158 C84.686,44.158 84.851,44.323 84.851,44.526" id="Fill-118" fill="#FFFFFE"></path>
                <path d="M90.252,38.482 C90.252,38.588 90.166,38.674 90.06,38.674 C89.954,38.674 89.868,38.588 89.868,38.482 C89.868,38.376 89.954,38.29 90.06,38.29 C90.166,38.29 90.252,38.376 90.252,38.482" id="Fill-119" fill="#FFFFFE"></path>
                <path d="M104.006,16.86 C104.006,17.176 103.75,17.432 103.435,17.432 C103.118,17.432 102.862,17.176 102.862,16.86 C102.862,16.544 103.118,16.287 103.435,16.287 C103.75,16.287 104.006,16.544 104.006,16.86" id="Fill-120" fill="#FFFFFE"></path>
                <path d="M96.488,41.328 C96.488,41.451 96.389,41.552 96.266,41.552 C96.142,41.552 96.042,41.451 96.042,41.328 C96.042,41.205 96.142,41.105 96.266,41.105 C96.389,41.105 96.488,41.205 96.488,41.328" id="Fill-121" fill="#FFFFFE"></path>
                <path d="M102.119,40.151 C102.119,40.419 101.902,40.636 101.634,40.636 C101.366,40.636 101.148,40.419 101.148,40.151 C101.148,39.883 101.366,39.666 101.634,39.666 C101.902,39.666 102.119,39.883 102.119,40.151" id="Fill-122" fill="#FFFFFE"></path>
                <path d="M106.84,39.172 C106.84,39.295 106.74,39.394 106.618,39.394 C106.495,39.394 106.396,39.295 106.396,39.172 C106.396,39.05 106.495,38.95 106.618,38.95 C106.74,38.95 106.84,39.05 106.84,39.172" id="Fill-123" fill="#FFFFFE"></path>
                <path d="M122.662,36.622 C122.662,36.923 122.418,37.167 122.118,37.167 C121.817,37.167 121.574,36.923 121.574,36.622 C121.574,36.322 121.817,36.078 122.118,36.078 C122.418,36.078 122.662,36.322 122.662,36.622" id="Fill-124" fill="#FFFFFE"></path>
                <path d="M106.091,52.363 C106.091,52.732 105.791,53.032 105.422,53.032 C105.052,53.032 104.752,52.732 104.752,52.363 C104.752,51.993 105.052,51.694 105.422,51.694 C105.791,51.694 106.091,51.993 106.091,52.363" id="Fill-125" fill="#FFFFFE"></path>
                <polyline id="Fill-126" fill="#FFFFFE" points="120.002 47.466 119.951 47.516 119.901 47.466 119.951 47.416 120.002 47.466"></polyline>
                <path d="M108.727,58.18 C108.727,58.548 108.429,58.846 108.061,58.846 C107.692,58.846 107.394,58.548 107.394,58.18 C107.394,57.812 107.692,57.513 108.061,57.513 C108.429,57.513 108.727,57.812 108.727,58.18" id="Fill-127" fill="#FFFFFE"></path>
                <path d="M113.284,61.303 C113.284,61.56 113.076,61.767 112.82,61.767 C112.563,61.767 112.356,61.56 112.356,61.303 C112.356,61.047 112.563,60.84 112.82,60.84 C113.076,60.84 113.284,61.047 113.284,61.303" id="Fill-128" fill="#FFFFFE"></path>
                <polyline id="Fill-129" fill="#FFFFFE" points="113.967 64.781 113.846 64.903 113.724 64.781 113.846 64.659 113.967 64.781"></polyline>
                <path d="M100.134,61.899 C100.134,62.255 99.846,62.543 99.489,62.543 C99.134,62.543 98.846,62.255 98.846,61.899 C98.846,61.543 99.134,61.255 99.489,61.255 C99.846,61.255 100.134,61.543 100.134,61.899" id="Fill-130" fill="#FFFFFE"></path>
                <polyline id="Fill-131" fill="#FFFFFE" points="108.269 60.261 108.211 60.319 108.153 60.261 108.211 60.203 108.269 60.261"></polyline>
                <path d="M126.587,61.987 C126.587,62.272 126.355,62.504 126.07,62.504 C125.784,62.504 125.553,62.272 125.553,61.987 C125.553,61.701 125.784,61.469 126.07,61.469 C126.355,61.469 126.587,61.701 126.587,61.987" id="Fill-132" fill="#FFFFFE"></path>
                <path d="M118.727,55.545 C118.727,55.701 118.6,55.828 118.443,55.828 C118.287,55.828 118.16,55.701 118.16,55.545 C118.16,55.388 118.287,55.261 118.443,55.261 C118.6,55.261 118.727,55.388 118.727,55.545" id="Fill-133" fill="#FFFFFE"></path>
                <path d="M113.479,49.752 C113.479,49.996 113.281,50.194 113.038,50.194 C112.794,50.194 112.596,49.996 112.596,49.752 C112.596,49.508 112.794,49.31 113.038,49.31 C113.281,49.31 113.479,49.508 113.479,49.752" id="Fill-134" fill="#FFFFFE"></path>
                <path d="M118.642,45.57 C118.642,45.693 118.541,45.793 118.418,45.793 C118.294,45.793 118.194,45.693 118.194,45.57 C118.194,45.446 118.294,45.346 118.418,45.346 C118.541,45.346 118.642,45.446 118.642,45.57" id="Fill-135" fill="#FFFFFE"></path>
                <path d="M138.99,41.064 C138.99,41.329 138.775,41.544 138.51,41.544 C138.245,41.544 138.029,41.329 138.029,41.064 C138.029,40.799 138.245,40.583 138.51,40.583 C138.775,40.583 138.99,40.799 138.99,41.064" id="Fill-136" fill="#FFFFFE"></path>
                <path d="M118.491,57.487 C118.491,57.661 118.35,57.802 118.177,57.802 C118.003,57.802 117.862,57.661 117.862,57.487 C117.862,57.314 118.003,57.173 118.177,57.173 C118.35,57.173 118.491,57.314 118.491,57.487" id="Fill-137" fill="#FFFFFE"></path>
                <path d="M144.638,47.364 C144.638,47.585 144.458,47.764 144.237,47.764 C144.016,47.764 143.837,47.585 143.837,47.364 C143.837,47.143 144.016,46.964 144.237,46.964 C144.458,46.964 144.638,47.143 144.638,47.364" id="Fill-138" fill="#FFFFFE"></path>
                <path d="M148.688,49.941 C148.688,50.193 148.484,50.397 148.232,50.397 C147.98,50.397 147.776,50.193 147.776,49.941 C147.776,49.689 147.98,49.485 148.232,49.485 C148.484,49.485 148.688,49.689 148.688,49.941" id="Fill-139" fill="#FFFFFE"></path>
                <path d="M119.192,70.479 C119.192,70.679 119.03,70.841 118.83,70.841 C118.63,70.841 118.468,70.679 118.468,70.479 C118.468,70.279 118.63,70.117 118.83,70.117 C119.03,70.117 119.192,70.279 119.192,70.479" id="Fill-140" fill="#FFFFFE"></path>
                <polyline id="Fill-141" fill="#FFFFFE" points="120.821 73.224 120.765 73.281 120.707 73.224 120.765 73.167 120.821 73.224"></polyline>
                <path d="M128.235,74.709 C128.235,74.804 128.158,74.881 128.063,74.881 C127.969,74.881 127.892,74.804 127.892,74.709 C127.892,74.614 127.969,74.537 128.063,74.537 C128.158,74.537 128.235,74.614 128.235,74.709" id="Fill-142" fill="#FFFFFE"></path>
                <path d="M121.82,74.896 C121.82,75.024 121.716,75.129 121.587,75.129 C121.459,75.129 121.354,75.024 121.354,74.896 C121.354,74.767 121.459,74.663 121.587,74.663 C121.716,74.663 121.82,74.767 121.82,74.896" id="Fill-143" fill="#FFFFFE"></path>
                <path d="M120.698,78.762 C120.698,78.928 120.563,79.064 120.396,79.064 C120.229,79.064 120.095,78.928 120.095,78.762 C120.095,78.595 120.229,78.46 120.396,78.46 C120.563,78.46 120.698,78.595 120.698,78.762" id="Fill-144" fill="#FFFFFE"></path>
                <path d="M141.327,94.29 C141.327,94.449 141.197,94.579 141.038,94.579 C140.879,94.579 140.749,94.449 140.749,94.29 C140.749,94.131 140.879,94.001 141.038,94.001 C141.197,94.001 141.327,94.131 141.327,94.29" id="Fill-145" fill="#FFFFFE"></path>
                <path d="M123.021,76.009 C123.021,76.233 122.84,76.415 122.616,76.415 C122.393,76.415 122.211,76.233 122.211,76.009 C122.211,75.785 122.393,75.604 122.616,75.604 C122.84,75.604 123.021,75.785 123.021,76.009" id="Fill-146" fill="#FFFFFE"></path>
                <path d="M129.932,104.06 C129.932,104.307 129.731,104.508 129.485,104.508 C129.238,104.508 129.038,104.307 129.038,104.06 C129.038,103.813 129.238,103.613 129.485,103.613 C129.731,103.613 129.932,103.813 129.932,104.06" id="Fill-147" fill="#FFFFFE"></path>
                <path d="M121.65,89.323 C121.65,89.633 121.4,89.883 121.091,89.883 C120.781,89.883 120.531,89.633 120.531,89.323 C120.531,89.014 120.781,88.763 121.091,88.763 C121.4,88.763 121.65,89.014 121.65,89.323" id="Fill-148" fill="#FFFFFE"></path>
                <path d="M118.191,92.537 C118.191,92.657 118.094,92.755 117.973,92.755 C117.853,92.755 117.755,92.657 117.755,92.537 C117.755,92.417 117.853,92.319 117.973,92.319 C118.094,92.319 118.191,92.417 118.191,92.537" id="Fill-149" fill="#FFFFFE"></path>
                <path d="M111.956,91.328 C111.956,91.419 111.883,91.492 111.792,91.492 C111.701,91.492 111.628,91.419 111.628,91.328 C111.628,91.238 111.701,91.164 111.792,91.164 C111.883,91.164 111.956,91.238 111.956,91.328" id="Fill-150" fill="#FFFFFE"></path>
                <path d="M124.306,91.896 C124.306,92.22 124.042,92.483 123.718,92.483 C123.394,92.483 123.131,92.22 123.131,91.896 C123.131,91.572 123.394,91.309 123.718,91.309 C124.042,91.309 124.306,91.572 124.306,91.896" id="Fill-151" fill="#FFFFFE"></path>
                <path d="M105.722,74.169 C105.722,74.356 105.57,74.508 105.383,74.508 C105.196,74.508 105.045,74.356 105.045,74.169 C105.045,73.983 105.196,73.831 105.383,73.831 C105.57,73.831 105.722,73.983 105.722,74.169" id="Fill-152" fill="#FFFFFE"></path>
                <path d="M115.592,76.069 C115.592,76.184 115.498,76.278 115.383,76.278 C115.267,76.278 115.173,76.184 115.173,76.069 C115.173,75.953 115.267,75.859 115.383,75.859 C115.498,75.859 115.592,75.953 115.592,76.069" id="Fill-153" fill="#FFFFFE"></path>
                <polyline id="Fill-154" fill="#FFFFFE" points="103.261 63.428 103.147 63.542 103.034 63.428 103.147 63.315 103.261 63.428"></polyline>
                <path d="M118.143,64.378 C118.143,64.613 117.952,64.803 117.717,64.803 C117.482,64.803 117.292,64.613 117.292,64.378 C117.292,64.143 117.482,63.953 117.717,63.953 C117.952,63.953 118.143,64.143 118.143,64.378" id="Fill-155" fill="#FFFFFE"></path>
                <path d="M121.992,62.693 C121.992,62.948 121.785,63.155 121.53,63.155 C121.275,63.155 121.069,62.948 121.069,62.693 C121.069,62.438 121.275,62.232 121.53,62.232 C121.785,62.232 121.992,62.438 121.992,62.693" id="Fill-156" fill="#FFFFFE"></path>
                <path d="M135.58,72.92 C135.58,73.082 135.449,73.214 135.287,73.214 C135.125,73.214 134.993,73.082 134.993,72.92 C134.993,72.758 135.125,72.627 135.287,72.627 C135.449,72.627 135.58,72.758 135.58,72.92" id="Fill-157" fill="#FFFFFE"></path>
                <polyline id="Fill-158" fill="#FFFFFE" points="130.014 60.6 129.947 60.666 129.882 60.6 129.947 60.533 130.014 60.6"></polyline>
                <polyline id="Fill-159" fill="#FFFFFE" points="127.113 50.509 127.008 50.614 126.903 50.509 127.008 50.404 127.113 50.509"></polyline>
                <polyline id="Fill-160" fill="#FFFFFE" points="134.792 46.928 134.735 46.986 134.678 46.928 134.735 46.871 134.792 46.928"></polyline>
                <path d="M146.745,37.528 C146.745,37.678 146.624,37.8 146.474,37.8 C146.322,37.8 146.201,37.678 146.201,37.528 C146.201,37.377 146.322,37.256 146.474,37.256 C146.624,37.256 146.745,37.377 146.745,37.528" id="Fill-161" fill="#FFFFFE"></path>
                <path d="M167.133,63.013 C167.133,63.263 166.93,63.467 166.68,63.467 C166.43,63.467 166.227,63.263 166.227,63.013 C166.227,62.763 166.43,62.56 166.68,62.56 C166.93,62.56 167.133,62.763 167.133,63.013" id="Fill-162" fill="#FFFFFE"></path>
                <path d="M150.207,89.29 C150.207,89.438 150.087,89.558 149.938,89.558 C149.79,89.558 149.67,89.438 149.67,89.29 C149.67,89.141 149.79,89.021 149.938,89.021 C150.087,89.021 150.207,89.141 150.207,89.29" id="Fill-163" fill="#FFFFFE"></path>
                <path d="M139.977,56.565 C139.977,56.677 139.886,56.767 139.774,56.767 C139.663,56.767 139.572,56.677 139.572,56.565 C139.572,56.454 139.663,56.363 139.774,56.363 C139.886,56.363 139.977,56.454 139.977,56.565" id="Fill-164" fill="#FFFFFE"></path>
                <path d="M140.856,78.85 C140.856,79.097 140.656,79.297 140.409,79.297 C140.162,79.297 139.962,79.097 139.962,78.85 C139.962,78.603 140.162,78.403 140.409,78.403 C140.656,78.403 140.856,78.603 140.856,78.85" id="Fill-165" fill="#FFFFFE"></path>
                <path d="M135.142,70.071 C135.142,70.244 135.001,70.384 134.828,70.384 C134.655,70.384 134.516,70.244 134.516,70.071 C134.516,69.898 134.655,69.758 134.828,69.758 C135.001,69.758 135.142,69.898 135.142,70.071" id="Fill-166" fill="#FFFFFE"></path>
                <polyline id="Fill-167" fill="#FFFFFE" points="133.839 83.998 133.805 84.033 133.77 83.998 133.805 83.964 133.839 83.998"></polyline>
                <path d="M131.498,90.902 C131.498,91.199 131.257,91.441 130.959,91.441 C130.661,91.441 130.42,91.199 130.42,90.902 C130.42,90.604 130.661,90.362 130.959,90.362 C131.257,90.362 131.498,90.604 131.498,90.902" id="Fill-168" fill="#FFFFFE"></path>
                <path d="M120.888,69.279 C120.888,69.671 120.57,69.988 120.179,69.988 C119.786,69.988 119.469,69.671 119.469,69.279 C119.469,68.887 119.786,68.569 120.179,68.569 C120.57,68.569 120.888,68.887 120.888,69.279" id="Fill-169" fill="#FFFFFE"></path>
                <path d="M132.745,64.536 C132.745,64.675 132.633,64.787 132.494,64.787 C132.355,64.787 132.243,64.675 132.243,64.536 C132.243,64.397 132.355,64.285 132.494,64.285 C132.633,64.285 132.745,64.397 132.745,64.536" id="Fill-170" fill="#FFFFFE"></path>
                <path d="M115.251,60.425 C115.251,60.599 115.109,60.741 114.935,60.741 C114.76,60.741 114.618,60.599 114.618,60.425 C114.618,60.25 114.76,60.109 114.935,60.109 C115.109,60.109 115.251,60.25 115.251,60.425" id="Fill-171" fill="#FFFFFE"></path>
                <path d="M115.444,56.351 C115.444,56.647 115.204,56.886 114.909,56.886 C114.613,56.886 114.374,56.647 114.374,56.351 C114.374,56.055 114.613,55.816 114.909,55.816 C115.204,55.816 115.444,56.055 115.444,56.351" id="Fill-172" fill="#FFFFFE"></path>
                <path d="M114.196,52.427 C114.196,52.741 113.941,52.997 113.627,52.997 C113.313,52.997 113.058,52.741 113.058,52.427 C113.058,52.113 113.313,51.858 113.627,51.858 C113.941,51.858 114.196,52.113 114.196,52.427" id="Fill-173" fill="#FFFFFE"></path>
                <path d="M121.915,47.356 C121.915,47.475 121.818,47.572 121.699,47.572 C121.579,47.572 121.482,47.475 121.482,47.356 C121.482,47.236 121.579,47.139 121.699,47.139 C121.818,47.139 121.915,47.236 121.915,47.356" id="Fill-174" fill="#FFFFFE"></path>
                <path d="M126.754,33.905 C126.754,34.237 126.484,34.506 126.152,34.506 C125.82,34.506 125.552,34.237 125.552,33.905 C125.552,33.573 125.82,33.304 126.152,33.304 C126.484,33.304 126.754,33.573 126.754,33.905" id="Fill-175" fill="#FFFFFE"></path>
                <polyline id="Fill-176" fill="#FFFFFE" points="129.662 26.244 129.517 26.391 129.37 26.244 129.517 26.098 129.662 26.244"></polyline>
                <path d="M127.425,45.364 C127.425,45.524 127.295,45.654 127.134,45.654 C126.974,45.654 126.844,45.524 126.844,45.364 C126.844,45.203 126.974,45.073 127.134,45.073 C127.295,45.073 127.425,45.203 127.425,45.364" id="Fill-177" fill="#FFFFFE"></path>
                <path d="M137.219,70.824 C137.219,70.991 137.083,71.127 136.916,71.127 C136.749,71.127 136.614,70.991 136.614,70.824 C136.614,70.657 136.749,70.522 136.916,70.522 C137.083,70.522 137.219,70.657 137.219,70.824" id="Fill-178" fill="#FFFFFE"></path>
                <path d="M123.669,40.079 C123.669,40.463 123.357,40.775 122.973,40.775 C122.589,40.775 122.277,40.463 122.277,40.079 C122.277,39.695 122.589,39.383 122.973,39.383 C123.357,39.383 123.669,39.695 123.669,40.079" id="Fill-179" fill="#FFFFFE"></path>
                <polyline id="Fill-180" fill="#FFFFFE" points="120.398 45.813 120.264 45.948 120.128 45.813 120.264 45.678 120.398 45.813"></polyline>
                <polyline id="Fill-181" fill="#FFFFFE" points="125.479 73.688 125.452 73.715 125.426 73.688 125.452 73.662 125.479 73.688"></polyline>
                <path d="M115.81,55.313 C115.81,55.541 115.625,55.725 115.398,55.725 C115.171,55.725 114.986,55.541 114.986,55.313 C114.986,55.086 115.171,54.902 115.398,54.902 C115.625,54.902 115.81,55.086 115.81,55.313" id="Fill-182" fill="#FFFFFE"></path>
                <path d="M116.468,68.556 C116.468,68.831 116.245,69.054 115.97,69.054 C115.695,69.054 115.473,68.831 115.473,68.556 C115.473,68.281 115.695,68.058 115.97,68.058 C116.245,68.058 116.468,68.281 116.468,68.556" id="Fill-183" fill="#FFFFFE"></path>
                <path d="M109.158,58.075 C109.158,58.21 109.049,58.32 108.914,58.32 C108.779,58.32 108.67,58.21 108.67,58.075 C108.67,57.94 108.779,57.831 108.914,57.831 C109.049,57.831 109.158,57.94 109.158,58.075" id="Fill-184" fill="#FFFFFE"></path>
                <polyline id="Fill-185" fill="#FFFFFE" points="111.608 79.221 111.524 79.305 111.439 79.221 111.524 79.136 111.608 79.221"></polyline>
                <path d="M102.809,49.279 C102.809,49.394 102.715,49.488 102.6,49.488 C102.484,49.488 102.391,49.394 102.391,49.279 C102.391,49.163 102.484,49.07 102.6,49.07 C102.715,49.07 102.809,49.163 102.809,49.279" id="Fill-186" fill="#FFFFFE"></path>
                <path d="M103.361,56.031 C103.361,56.341 103.111,56.592 102.802,56.592 C102.492,56.592 102.241,56.341 102.241,56.031 C102.241,55.722 102.492,55.471 102.802,55.471 C103.111,55.471 103.361,55.722 103.361,56.031" id="Fill-187" fill="#FFFFFE"></path>
                <path d="M97.702,55.277 C97.702,55.617 97.427,55.892 97.087,55.892 C96.747,55.892 96.472,55.617 96.472,55.277 C96.472,54.937 96.747,54.662 97.087,54.662 C97.427,54.662 97.702,54.937 97.702,55.277" id="Fill-188" fill="#FFFFFE"></path>
                <path d="M80.37,50.611 C80.37,50.923 80.117,51.176 79.805,51.176 C79.493,51.176 79.24,50.923 79.24,50.611 C79.24,50.299 79.493,50.046 79.805,50.046 C80.117,50.046 80.37,50.299 80.37,50.611" id="Fill-189" fill="#FFFFFE"></path>
                <path d="M91.25,42.763 C91.25,42.916 91.126,43.04 90.973,43.04 C90.819,43.04 90.695,42.916 90.695,42.763 C90.695,42.61 90.819,42.486 90.973,42.486 C91.126,42.486 91.25,42.61 91.25,42.763" id="Fill-190" fill="#FFFFFE"></path>
                <path d="M87.129,34.365 C87.129,34.668 86.884,34.914 86.58,34.914 C86.276,34.914 86.03,34.668 86.03,34.365 C86.03,34.061 86.276,33.816 86.58,33.816 C86.884,33.816 87.129,34.061 87.129,34.365" id="Fill-191" fill="#FFFFFE"></path>
                <polyline id="Fill-192" fill="#FFFFFE" points="96.759 22.67 96.72 22.709 96.682 22.67 96.72 22.632 96.759 22.67"></polyline>
                <path d="M110.678,49.261 C110.678,49.484 110.497,49.665 110.273,49.665 C110.051,49.665 109.87,49.484 109.87,49.261 C109.87,49.038 110.051,48.857 110.273,48.857 C110.497,48.857 110.678,49.038 110.678,49.261" id="Fill-193" fill="#FFFFFE"></path>
                <path d="M114.843,28.683 C114.843,29.075 114.525,29.392 114.134,29.392 C113.742,29.392 113.425,29.075 113.425,28.683 C113.425,28.292 113.742,27.974 114.134,27.974 C114.525,27.974 114.843,28.292 114.843,28.683" id="Fill-194" fill="#FFFFFE"></path>
                <path d="M115.532,39.698 C115.532,40.073 115.228,40.377 114.853,40.377 C114.478,40.377 114.173,40.073 114.173,39.698 C114.173,39.323 114.478,39.018 114.853,39.018 C115.228,39.018 115.532,39.323 115.532,39.698" id="Fill-195" fill="#FFFFFE"></path>
                <path d="M117.617,48.539 C117.617,48.633 117.541,48.708 117.447,48.708 C117.354,48.708 117.278,48.633 117.278,48.539 C117.278,48.445 117.354,48.369 117.447,48.369 C117.541,48.369 117.617,48.445 117.617,48.539" id="Fill-196" fill="#FFFFFE"></path>
                <path d="M112.073,41.818 C112.073,42.106 111.84,42.339 111.552,42.339 C111.265,42.339 111.031,42.106 111.031,41.818 C111.031,41.53 111.265,41.297 111.552,41.297 C111.84,41.297 112.073,41.53 112.073,41.818" id="Fill-197" fill="#FFFFFE"></path>
                <path d="M112.118,59.087 C112.118,59.248 111.987,59.379 111.826,59.379 C111.665,59.379 111.534,59.248 111.534,59.087 C111.534,58.925 111.665,58.794 111.826,58.794 C111.987,58.794 112.118,58.925 112.118,59.087" id="Fill-198" fill="#FFFFFE"></path>
                <path d="M106.896,35.807 C106.896,35.926 106.8,36.021 106.682,36.021 C106.564,36.021 106.469,35.926 106.469,35.807 C106.469,35.69 106.564,35.594 106.682,35.594 C106.8,35.594 106.896,35.69 106.896,35.807" id="Fill-199" fill="#FFFFFE"></path>
                <path d="M111.762,45.056 C111.762,45.229 111.621,45.369 111.448,45.369 C111.275,45.369 111.135,45.229 111.135,45.056 C111.135,44.883 111.275,44.742 111.448,44.742 C111.621,44.742 111.762,44.883 111.762,45.056" id="Fill-200" fill="#FFFFFE"></path>
                <polyline id="Fill-201" fill="#FFFFFE" points="111.057 41.01 110.954 41.113 110.852 41.01 110.954 40.907 111.057 41.01"></polyline>
                <path d="M113.594,38.061 C113.594,38.182 113.495,38.281 113.373,38.281 C113.252,38.281 113.153,38.182 113.153,38.061 C113.153,37.939 113.252,37.841 113.373,37.841 C113.495,37.841 113.594,37.939 113.594,38.061" id="Fill-202" fill="#FFFFFE"></path>
                <polyline id="Fill-203" fill="#FFFFFE" points="105.004 32.018 104.974 32.049 104.942 32.018 104.974 31.987 105.004 32.018"></polyline>
                <path d="M92.192,18.466 C92.192,18.72 91.986,18.927 91.731,18.927 C91.477,18.927 91.271,18.72 91.271,18.466 C91.271,18.211 91.477,18.005 91.731,18.005 C91.986,18.005 92.192,18.211 92.192,18.466" id="Fill-204" fill="#FFFFFE"></path>
                <path d="M106.69,24.26 C106.69,24.563 106.444,24.808 106.142,24.808 C105.839,24.808 105.594,24.563 105.594,24.26 C105.594,23.957 105.839,23.712 106.142,23.712 C106.444,23.712 106.69,23.957 106.69,24.26" id="Fill-205" fill="#FFFFFE"></path>
                <path d="M104.374,17.896 C104.374,18.037 104.261,18.151 104.12,18.151 C103.98,18.151 103.866,18.037 103.866,17.896 C103.866,17.756 103.98,17.642 104.12,17.642 C104.261,17.642 104.374,17.756 104.374,17.896" id="Fill-206" fill="#FFFFFE"></path>
                <path d="M122.856,26.211 C122.856,26.51 122.613,26.754 122.313,26.754 C122.014,26.754 121.771,26.51 121.771,26.211 C121.771,25.91 122.014,25.667 122.313,25.667 C122.613,25.667 122.856,25.91 122.856,26.211" id="Fill-207" fill="#FFFFFE"></path>
                <path d="M180.763,77.171 C180.585,77.412 180.396,77.654 180.203,77.892 C174.783,84.648 167.339,89.781 158.648,92.309 L158.542,92.335 L161.987,88.14 L161.995,88.128 L162.053,88.085 L162.061,88.086 L177.265,75.325 C179.224,75.948 179.8,76.988 180.763,77.171" id="Fill-208" fill="#FFFFFE"></path>
                <path d="M189.869,42.544 C189.97,43.169 190.058,43.795 190.133,44.43 C191.52,56.11 188.119,67.254 181.46,75.88 C181.287,76.123 181.094,76.369 180.899,76.598 C179.17,75.565 177.964,74.03 177.964,74.03 L176.588,65.964 L182.63,49.044 L189.49,40.538 C189.631,41.198 189.759,41.857 189.867,42.534 L189.869,42.544" id="Fill-209" fill="#FFFFFE"></path>
                <path d="M182.781,23.885 L172.304,18.77 L158.674,7.938 L154.585,4.869 C155.109,4.975 155.635,5.084 156.155,5.2 C166.735,7.637 175.993,14 182.081,22.838 C182.325,23.186 182.551,23.532 182.781,23.885" id="Fill-210" fill="#FFFFFE"></path>
                <path d="M131.94,5.792 L130.481,7.778 L130.466,7.801 C130.192,7.799 129.931,7.796 129.652,7.785 L129.143,8.599 L128.899,8.601 C128.899,8.601 122.747,9.185 113.529,19.421 L113.5,19.473 L113.465,19.532 C113.39,19.659 113.265,19.882 113.113,20.183 L113.106,20.193 L113.04,20.234 L109.903,20.829 C110.022,20.662 110.149,20.509 110.276,20.353 C115.336,13.997 122.177,9.054 130.163,6.359 C130.749,6.151 131.345,5.969 131.94,5.792" id="Fill-211" fill="#FFFFFE"></path>
                <path d="M132.577,83.271 C132.577,83.271 137.876,85.586 150.542,83.562 C150.542,83.562 155.822,78.431 158.94,70.048 L150.116,59.162 C150.116,59.162 139.157,59.966 130.481,58.415 C130.481,58.415 124.414,65.229 122.654,69.377 C122.654,69.377 122.15,71.026 125.979,75.874 C129.806,80.717 131.751,82.995 132.577,83.271" id="Fill-212" fill="#FFFFFE"></path>
                <path d="M180.988,48.864 C180.458,52.19 180.193,55.885 175.098,65.35 C175.098,65.35 167.207,68.565 160.007,68.703 C160.007,68.703 151.834,58.468 151.09,58.116 C151.09,58.116 156.775,44.463 157.338,42.667 C157.901,40.867 158.423,39.336 158.062,39.079 L171.309,35.281 C171.309,35.281 177.64,40.568 180.988,48.864" id="Fill-213" fill="#FFFFFE"></path>
                <path d="M129.183,9.074 C129.183,9.074 123.034,9.659 113.812,19.895 C113.812,19.895 110.201,25.608 112.083,33.05 L123.891,37.165 L140.347,25.953 C140.347,25.953 140.347,22.271 140.616,19.78 C140.886,17.286 141.372,11.611 142.472,11.01 C142.472,11.01 138.436,9.034 129.424,9.069" id="Fill-214" fill="#FFFFFE"></path>
                <path d="M142.028,25.71 C142.028,25.71 142.333,19.17 142.61,16.021 C142.784,14.021 143.368,11.932 143.831,11.164 C147.109,8.876 157.993,8.102 158.492,8.38 C160.599,8.605 163.335,11.478 165.272,12.85 C167.213,14.224 170.707,17.389 172.269,19.226 C172.269,19.226 173.206,23.388 172.694,28.561 C172.182,33.731 171.785,33.862 171.785,33.862 C171.785,33.862 159.981,36.561 157.745,37.365 L142.028,25.71" id="Fill-215" fill="#FFFFFE"></path>
                <path d="M190.19,41.703 L190.192,41.714 C187.62,46.351 182.894,48.678 182.572,48.555 C182.572,48.555 176.345,36.958 172.11,34.123 L172.119,33.889 L172.495,19.001 C176.389,19.238 180.146,21.374 182.786,23.283 C183.043,23.65 183.281,24.014 183.523,24.386 C186.461,28.927 188.626,34.057 189.793,39.602 C189.941,40.297 190.076,40.99 190.19,41.703" id="Fill-216" fill="#121310"></path>
                <path d="M151.067,84.213 C151.067,84.213 154.586,86.494 158.186,87.615 C159.306,87.966 160.177,88.18 161.271,88.257 C162.791,88.36 166.866,85.904 170.243,83.164 C175.149,79.185 177.443,75.888 177.602,74.631 C177.911,72.173 176.209,66.365 176.209,66.365 C176.209,66.365 167.445,69.732 159.908,69.988 C159.908,69.988 159.12,73.329 151.067,84.213" id="Fill-217" fill="#121310"></path>
                <path d="M158.147,7.599 L143.14,10.612 L142.746,10.362 C141.296,9.382 139.638,8.842 138.052,8.389 C137.923,8.355 137.797,8.326 137.653,8.29 C135.007,7.594 132.64,7.529 129.914,7.542 C129.589,7.233 130.164,6.491 130.65,5.993 C131.267,5.774 131.894,5.583 132.52,5.397 C134.904,4.699 137.38,4.192 139.928,3.891 C144.688,3.325 149.37,3.512 153.843,4.368 C154.395,4.48 154.947,4.595 155.495,4.717 C157.86,6.62 158.147,7.599 158.147,7.599" id="Fill-218" fill="#121310"></path>
                <path d="M140.999,58.77 C144.711,58.78 147.705,58.746 149.254,58.769 C150.805,58.792 151.009,58.767 152.354,54.89 C153.698,51.019 157.693,40.481 157.894,39.035 C158.075,37.727 158.337,38.285 154.503,35.182 C151.261,32.563 145.512,28.564 143.663,27.338 C141.815,26.112 140.473,25.237 138.248,26.485 C136.022,27.73 132.104,29.95 128.715,32.673 C125.322,35.399 123.441,37.377 123.618,38.852 C123.793,40.329 125.329,46.75 127.021,51.864 C128.71,56.978 129.292,57.528 131.299,57.908 C133.306,58.289 135.941,58.75 140.999,58.77" id="Fill-219" fill="#121310"></path>
                <path d="M154.684,79.832 C154.684,79.832 158.938,73.998 159.493,72.492 C160.049,70.987 160.112,70.72 161.221,70.433 C162.33,70.145 169.965,69.301 176.099,67.177 C176.099,67.177 172.92,69.232 167.585,70.273 C162.249,71.321 162.497,70.338 160.545,73.065 C158.589,75.787 155.407,79.203 154.684,79.832" id="Fill-220" fill="#0A0B09"></path>
                <path d="M142.354,61.538 L36.02,86.673 C34.341,87.07 33.301,88.754 33.698,90.433 C34.095,92.113 35.778,93.153 37.458,92.756 L141.229,68.227 L142.354,61.538" id="Fill-221" fill="#FFFFFE"></path>
                <path d="M121.035,20.383 C121.366,21.785 120.498,23.191 119.097,23.522 L65.58,36.172 C64.178,36.504 62.771,35.635 62.44,34.233 C62.109,32.831 62.978,31.426 64.379,31.094 L117.896,18.444 C119.298,18.113 120.704,18.981 121.035,20.383" id="Fill-222" fill="#FFFFFE"></path>
                <path d="M154.534,83.021 C154.713,83.776 154.245,84.533 153.49,84.712 L124.656,91.528 C123.9,91.706 123.144,91.239 122.965,90.483 C122.786,89.727 123.254,88.97 124.009,88.792 L152.843,81.976 C153.599,81.798 154.355,82.265 154.534,83.021" id="Fill-223" fill="#121310"></path>
                <path d="M119.659,95.271 C119.838,96.026 119.37,96.783 118.615,96.962 L89.781,103.778 C89.025,103.956 88.269,103.489 88.09,102.733 C87.911,101.977 88.379,101.22 89.134,101.042 L117.968,94.226 C118.724,94.048 119.48,94.515 119.659,95.271" id="Fill-224" fill="#FFFFFE"></path>
                <path d="M137.933,5.507 C138.078,6.123 137.696,6.74 137.08,6.886 L88.293,18.418 C87.677,18.564 87.06,18.182 86.914,17.566 C86.769,16.95 87.149,16.332 87.766,16.187 L136.553,4.655 C137.169,4.509 137.787,4.89 137.933,5.507" id="Fill-225" fill="#121310"></path>
                <path d="M163.904,85.127 L144.807,89.641 C144.19,89.787 143.809,90.405 143.954,91.021 C144.101,91.637 144.718,92.018 145.334,91.873 L163.491,87.581 L163.904,85.127" id="Fill-226" fill="#121310"></path>
                <path d="M116.346,32.609 C116.497,33.247 116.103,33.886 115.465,34.037 L17.873,57.105 C17.235,57.255 16.597,56.861 16.446,56.223 C16.295,55.585 16.689,54.947 17.327,54.796 L114.919,31.728 C115.557,31.577 116.195,31.971 116.346,32.609" id="Fill-227" fill="#FFFFFE"></path>
                <path d="M143.56,37.247 C143.711,37.885 143.316,38.524 142.679,38.675 L45.087,61.742 C44.449,61.893 43.811,61.498 43.66,60.861 C43.509,60.223 43.903,59.584 44.541,59.433 L142.133,36.365 C142.771,36.215 143.409,36.609 143.56,37.247" id="Fill-228" fill="#121310"></path>
                <path d="M149.764,48.436 C149.987,49.383 149.401,50.331 148.455,50.555 L3.588,84.798 C2.642,85.022 1.693,84.436 1.469,83.489 C1.245,82.543 1.831,81.594 2.778,81.37 L147.646,47.128 C148.592,46.904 149.54,47.49 149.764,48.436" id="Fill-229" fill="#121310"></path>
                <path d="M148.104,76.598 C148.188,76.955 147.967,77.313 147.61,77.397 L35.289,103.947 C34.933,104.031 34.575,103.81 34.49,103.454 C34.406,103.097 34.627,102.74 34.983,102.656 L147.306,76.105 C147.662,76.021 148.02,76.242 148.104,76.598" id="Fill-230" fill="#FFFFFE"></path>
            </g>
        </g>
    </g>
</svg>