<?xml version="1.0" encoding="UTF-8"?>
<svg width="1440px" height="1024px" viewBox="0 0 1440 1024" version="1.1" xmlns="http://www.w3.org/2000/svg" xmlns:xlink="http://www.w3.org/1999/xlink">
    <!-- Generator: Sketch 54.1 (76490) - https://sketchapp.com -->
    <title>Desktop HD Copy 3</title>
    <desc>Created with Sketch.</desc>
    <g id="Desktop-HD-Copy-3" stroke="none" stroke-width="1" fill="none" fill-rule="evenodd" fill-opacity="0.03">
        <path d="M23.1793644,322.054461 C23.1793644,314.366922 24.4982288,307.159963 27.1359971,300.433367 C29.7737654,293.706771 33.490565,287.861126 38.2865073,282.896258 C43.0824497,277.931389 48.9174253,274.0076 55.7916093,271.124773 C62.6657934,268.241947 70.339186,266.800555 78.8120175,266.800555 C82.9685009,266.800555 86.6853004,267.080825 89.9625277,267.641375 C93.239755,268.201925 95.9973805,268.882582 98.2354869,269.683367 C100.953188,270.484152 103.271192,271.44508 105.189569,272.56618 L108.546711,266.800555 C105.988875,265.679455 103.271216,264.63845 100.39365,263.677508 C97.6759495,262.876723 94.5586337,262.156027 91.0416093,261.515398 C87.524585,260.87477 83.4480951,260.554461 78.8120175,260.554461 C70.6589155,260.554461 62.8656261,261.995853 55.4319155,264.87868 C47.9982048,267.761507 41.4438486,271.885489 35.7686502,277.25075 C30.0934517,282.616011 25.5373748,289.102274 22.1002828,296.709734 C18.6631908,304.317194 16.9446706,312.765352 16.9446706,322.054461 C16.9446706,331.503727 18.5832596,339.991923 21.8604869,347.519305 C25.1377142,355.046686 29.6538255,361.492911 35.4089563,366.858172 C41.1640871,372.223433 47.8783057,376.347415 55.5518134,379.230242 C63.2253212,382.113069 71.3783009,383.554461 80.0109971,383.554461 C84.8069394,383.554461 89.1232228,383.154074 92.9599767,382.353289 C96.7967306,381.552504 100.073922,380.671648 102.791609,379.710711 C105.829039,378.589612 108.546699,377.308374 110.944671,375.866961 L107.587528,370.101336 C105.509286,371.542749 103.111351,372.743909 100.39365,373.704852 C97.995679,374.665794 95.1181567,375.506606 91.7609971,376.227312 C88.4038375,376.948019 84.48721,377.308367 80.0109971,377.308367 C71.2184361,377.308367 63.30525,375.866975 56.2712012,372.984148 C49.2371524,370.101322 43.28228,366.177533 38.4064053,361.212664 C33.5305305,356.247795 29.7737654,350.402151 27.1359971,343.675555 C24.4982288,336.948959 23.1793644,329.741999 23.1793644,322.054461 Z M2.4482046,271.721348 C2.4482046,258.921284 4.6888003,247.3614 9.17005891,237.041348 C13.6513175,226.721297 19.7329344,217.881385 27.415092,210.521348 C35.0972496,203.161311 44.0596324,197.521368 54.3025092,193.601348 C64.5453861,189.681329 75.4282794,187.721348 86.9515159,187.721348 C96.074078,187.721348 104.196237,188.601339 111.318238,190.361348 C118.440238,192.121357 124.561866,194.121337 129.683304,196.361348 C135.604967,198.921361 140.726329,201.721333 145.047542,204.761348 L119.840589,249.161348 C117.27987,247.241339 114.479125,245.401357 111.438271,243.641348 C108.717507,242.361342 105.476645,241.121354 101.715589,239.921348 C97.9545324,238.721342 93.6733942,238.121348 88.8720457,238.121348 C83.9106522,238.121348 79.3494395,239.001339 75.1882708,240.761348 C71.0271021,242.521357 67.3861341,244.921333 64.2652576,247.961348 C61.1443811,251.001363 58.7037322,254.561328 56.9432377,258.641348 C55.1827433,262.721369 54.3025092,267.081325 54.3025092,271.721348 C54.3025092,276.361371 55.2227539,280.721328 57.0632708,284.801348 C58.9037878,288.881369 61.4244579,292.441333 64.6253569,295.481348 C67.8262559,298.521363 71.5872558,300.921339 75.9084695,302.681348 C80.2296832,304.441357 84.9509384,305.321348 90.0723768,305.321348 C95.1938152,305.321348 99.7550279,304.681355 103.756152,303.401348 C107.757275,302.121342 111.118169,300.681356 113.838933,299.081348 C117.039832,297.321339 119.840577,295.24136 122.241251,292.841348 L147.448205,337.241348 C143.126991,340.761366 138.005629,343.881335 132.083966,346.601348 C126.962528,348.841359 120.80089,350.921339 113.598867,352.841348 C106.396844,354.761358 98.1546528,355.721348 88.8720457,355.721348 C76.3885395,355.721348 64.865476,353.681369 54.3025092,349.601348 C43.7395425,345.521328 34.6171172,339.801385 26.9349596,332.441348 C19.252802,325.081311 13.2512063,316.2414 8.92999268,305.921348 C4.60877902,295.601297 2.4482046,284.201411 2.4482046,271.721348 Z M152.786577,191.388141 L203.890973,191.388141 L203.890973,245.840915 L232.442255,245.840915 L232.442255,191.388141 L283.786577,191.388141 L283.786577,351.388141 L232.442255,351.388141 L232.442255,292.137766 L203.890973,292.137766 L203.890973,351.388141 L152.786577,351.388141 L152.786577,191.388141 Z M183.023571,332.388141 L183.023571,271.508457 L253.549583,271.508457 L253.549583,332.388141 L259.786577,332.388141 L259.786577,210.388141 L253.549583,210.388141 L253.549583,265.733309 L183.023571,265.733309 L183.023571,210.388141 L176.786577,210.388141 L176.786577,332.388141 L183.023571,332.388141 Z M339.527445,241.867979 L377.965883,241.867979 L438.746664,401.867979 L388.296213,401.867979 L383.010928,387.475175 L334.4824,387.475175 L329.197114,401.867979 L278.746664,401.867979 L339.527445,241.867979 Z M369.757096,352.360398 L358.757096,324.360398 L347.757096,352.360398 L369.757096,352.360398 Z M314.482513,382.867979 L319.053268,370.83642 L398.44006,370.83642 L403.010815,382.867979 L409.746664,382.867979 L363.317419,260.867979 L354.175909,260.867979 L307.746664,382.867979 L314.482513,382.867979 Z M368.169881,216.472474 L405.669881,314.472474 L330.669881,314.472474 L368.169881,216.472474 Z M451.280499,191.066353 L493.580928,191.066353 L535.40067,252.475649 L576.98007,191.066353 L619.280499,191.066353 L619.280499,351.066353 L568.087366,351.066353 L568.087366,293.495139 L535.40067,341.471151 L502.473632,293.495139 L502.473632,351.066353 L451.280499,351.066353 L451.280499,191.066353 Z M472.105874,382.277201 L472.105874,271.827497 L525.97361,350.273256 L579.600864,271.827497 L579.600864,382.277201 L585.853369,382.277201 L585.853369,260.277201 L579.600864,260.277201 L525.97361,339.444854 L472.105874,260.277201 L465.853369,260.277201 L465.853369,382.277201 L472.105874,382.277201 Z M761.007325,252.498976 C761.007325,263.533514 759.080562,272.928722 755.226978,280.684883 C751.373395,288.441043 746.114937,294.717842 739.451449,299.515467 C732.78796,304.313093 725.000626,307.831298 716.089213,310.07019 C707.177801,312.309082 697.584127,313.428511 687.307903,313.428511 L687.307903,351.56944 L636.007325,351.56944 L636.007325,191.56944 L687.307903,191.56944 C697.584127,191.56944 707.177801,192.688869 716.089213,194.927761 C725.000626,197.166653 732.78796,200.684859 739.451449,205.482484 C746.114937,210.280109 751.373395,216.556908 755.226978,224.313069 C759.080562,232.069229 761.007325,241.464438 761.007325,252.498976 Z M727.580196,302.650111 C727.580196,295.43114 726.344701,289.174792 723.873674,283.88088 C721.402647,278.586968 717.935291,274.25565 713.4715,270.886797 C709.00771,267.517944 703.707038,264.991342 697.569326,263.306915 C691.431614,261.622489 684.775884,260.780288 677.601935,260.780288 L650.580196,260.780288 L650.580196,382.780288 L656.797587,382.780288 L656.797587,344.519933 L677.601935,344.519933 C684.775884,344.519933 691.431614,343.677732 697.569326,341.993306 C703.707038,340.308879 709.00771,337.782277 713.4715,334.413424 C717.935291,331.044571 721.402647,326.713253 723.873674,321.419341 C726.344701,316.125429 727.580196,309.869082 727.580196,302.650111 Z M721.310381,302.256021 C721.310381,309.136055 720.116363,314.895998 717.728291,319.536021 C715.34022,324.176044 712.156172,327.856007 708.176053,330.576021 C704.195933,333.296034 699.618865,335.256015 694.444709,336.456021 C689.270554,337.656027 683.817872,338.256021 678.0865,338.256021 L657.310381,338.256021 L657.310381,266.256021 L678.0865,266.256021 C683.817872,266.256021 689.270554,266.856015 694.444709,268.056021 C699.618865,269.256027 704.195933,271.216007 708.176053,273.936021 C712.156172,276.656034 715.34022,280.335998 717.728291,284.976021 C720.116363,289.616044 721.310381,295.375986 721.310381,302.256021 Z M678.083311,321.105356 L680.231039,321.105356 C686.91289,321.105356 691.725342,319.52429 694.668539,316.362112 C697.611735,313.199934 699.083311,308.78106 699.083311,303.105356 C699.083311,297.429651 697.611735,293.010777 694.668539,289.848599 C691.725342,286.686421 686.91289,285.105356 680.231039,285.105356 L678.083311,285.105356 L678.083311,321.105356 Z M763.702372,241.352202 L817.702372,241.352202 L817.702372,401.352202 L763.702372,401.352202 L763.702372,241.352202 Z M803.129502,332.141354 L803.129502,210.141354 L797.129502,210.141354 L797.129502,332.141354 L803.129502,332.141354 Z M831.365812,321.515879 C831.365812,309.995822 833.56579,299.11593 837.965812,288.875879 C842.365834,278.635828 848.365774,269.715917 855.965812,262.115879 C863.56585,254.515841 872.485761,248.515901 882.725812,244.115879 C892.965863,239.715857 903.845754,237.515879 915.365812,237.515879 C926.88587,237.515879 937.765761,239.715857 948.005812,244.115879 C958.245863,248.515901 967.165774,254.515841 974.765812,262.115879 C982.36585,269.715917 988.36579,278.635828 992.765812,288.875879 C997.165834,299.11593 999.365812,309.995822 999.365812,321.515879 C999.365812,333.035937 997.165834,343.915828 992.765812,354.155879 C988.36579,364.39593 982.36585,373.315841 974.765812,380.915879 C967.165774,388.515917 958.245863,394.515857 948.005812,398.915879 C937.765761,403.315901 926.88587,405.515879 915.365812,405.515879 C903.845754,405.515879 892.965863,403.315901 882.725812,398.915879 C872.485761,394.515857 863.56585,388.515917 855.965812,380.915879 C848.365774,373.315841 842.365834,364.39593 837.965812,354.155879 C833.56579,343.915828 831.365812,333.035937 831.365812,321.515879 Z M853.259703,321.880066 C853.259703,330.36839 854.86125,338.336084 858.064391,345.783386 C861.267532,353.230689 865.671784,359.756991 871.277281,365.362488 C876.882778,370.967985 883.40908,375.372238 890.856383,378.575379 C898.303686,381.77852 906.271379,383.380066 914.759703,383.380066 C923.248027,383.380066 931.215721,381.77852 938.663023,378.575379 C946.110326,375.372238 952.636628,370.967985 958.242125,365.362488 C963.847622,359.756991 968.251875,353.230689 971.455016,345.783386 C974.658157,338.336084 976.259703,330.36839 976.259703,321.880066 C976.259703,313.391742 974.658157,305.424049 971.455016,297.976746 C968.251875,290.529443 963.847622,284.003141 958.242125,278.397644 C952.636628,272.792147 946.110326,268.387895 938.663023,265.184754 C931.215721,261.981613 923.248027,260.380066 914.759703,260.380066 C906.271379,260.380066 898.303686,261.981613 890.856383,265.184754 C883.40908,268.387895 876.882778,272.792147 871.277281,278.397644 C865.671784,284.003141 861.267532,290.529443 858.064391,297.976746 C854.86125,305.424049 853.259703,313.391742 853.259703,321.880066 Z M881.259703,321.880066 C881.259703,326.50628 882.137075,330.85326 883.891846,334.921138 C885.646617,338.989015 888.03945,342.538384 891.070417,345.569352 C894.101385,348.600319 897.650754,350.993153 901.718632,352.747923 C905.786509,354.502694 910.133489,355.380066 914.759703,355.380066 C919.385917,355.380066 923.732897,354.502694 927.800775,352.747923 C931.868652,350.993153 935.418021,348.600319 938.448989,345.569352 C941.479956,342.538384 943.87279,338.989015 945.62756,334.921138 C947.382331,330.85326 948.259703,326.50628 948.259703,321.880066 C948.259703,317.253853 947.382331,312.906872 945.62756,308.838995 C943.87279,304.771117 941.479956,301.221748 938.448989,298.19078 C935.418021,295.159813 931.868652,292.76698 927.800775,291.012209 C923.732897,289.257438 919.385917,288.380066 914.759703,288.380066 C910.133489,288.380066 905.786509,289.257438 901.718632,291.012209 C897.650754,292.76698 894.101385,295.159813 891.070417,298.19078 C888.03945,301.221748 885.646617,304.771117 883.891846,308.838995 C882.137075,312.906872 881.259703,317.253853 881.259703,321.880066 Z M924.67198,327.290179 C917.019768,327.290179 909.885782,325.842368 903.269807,322.946701 C896.653831,320.051034 890.835049,316.069553 885.813285,311.002136 C880.791521,305.934719 876.845908,300.063039 873.976328,293.386918 C871.106749,286.710798 869.67198,279.511957 869.67198,271.790179 C869.67198,264.068402 871.106749,256.869561 873.976328,250.19344 C876.845908,243.51732 880.791521,237.645639 885.813285,232.578223 C890.835049,227.510806 896.653831,223.529324 903.269807,220.633658 C909.885782,217.737991 917.019768,216.290179 924.67198,216.290179 C932.324193,216.290179 939.458179,217.737991 946.074154,220.633658 C952.690129,223.529324 958.508912,227.510806 963.530676,232.578223 C968.55244,237.645639 972.498053,243.51732 975.367633,250.19344 C978.237212,256.869561 979.67198,264.068402 979.67198,271.790179 C979.67198,279.511957 978.237212,286.710798 975.367633,293.386918 C972.498053,300.063039 968.55244,305.934719 963.530676,311.002136 C958.508912,316.069553 952.690129,320.051034 946.074154,322.946701 C939.458179,325.842368 932.324193,327.290179 924.67198,327.290179 Z M1012.29,241.411553 L1054.19141,241.411553 L1098.24775,303.060729 L1098.24775,241.411553 L1148.29,241.411553 L1148.29,401.411553 L1106.14916,401.411553 L1062.33226,340.002258 L1062.33226,401.411553 L1012.29,401.411553 L1012.29,241.411553 Z M1049.97891,332.200706 L1049.97891,221.029108 L1129.45535,332.200706 L1135.71713,332.200706 L1135.71713,210.200706 L1129.45535,210.200706 L1129.45535,321.372303 L1049.97891,210.200706 L1043.71713,210.200706 L1043.71713,332.200706 L1049.97891,332.200706 Z M1180.94074,381.276388 C1183.16669,381.756859 1185.5516,382.157246 1188.09555,382.47756 C1190.3215,382.797874 1192.66666,383.078145 1195.13111,383.31838 C1197.59556,383.558616 1200.09972,383.678732 1202.64366,383.678732 C1207.09557,383.678732 1211.42816,383.158229 1215.64157,382.117208 C1219.85498,381.076187 1223.6311,379.354525 1226.97002,376.952169 C1230.30895,374.549813 1232.97211,371.466836 1234.95956,367.703146 C1236.94702,363.939455 1237.94074,359.335009 1237.94074,353.889669 C1237.94074,349.245115 1236.78803,344.840862 1234.48258,340.676779 C1232.17713,336.512695 1229.23573,332.508829 1225.65831,328.66506 C1222.08088,324.821291 1218.26502,321.137734 1214.21061,317.614279 C1210.1562,314.090823 1206.34033,310.527383 1202.76291,306.923849 C1199.18549,303.320315 1196.24409,299.716836 1193.93864,296.113302 C1191.63319,292.509768 1190.48048,288.786173 1190.48048,284.942404 C1190.48048,279.17675 1192.30892,274.732458 1195.96584,271.609396 C1199.62276,268.486333 1205.50555,266.924825 1213.61438,266.924825 C1214.88635,266.924825 1216.19805,266.964864 1217.54952,267.044943 C1218.90099,267.125021 1220.2127,267.245137 1221.48467,267.405294 C1222.75664,267.565451 1224.0286,267.645529 1225.30057,267.645529 L1225.30057,261.399435 C1224.18759,261.399435 1222.99514,261.319357 1221.72316,261.1592 C1220.61019,260.999043 1219.37798,260.878927 1218.02651,260.798849 C1216.67504,260.71877 1215.28384,260.678732 1213.85287,260.678732 C1205.26705,260.678732 1198.19181,262.640626 1192.62693,266.564474 C1187.06205,270.488322 1184.27965,276.614237 1184.27965,284.942404 C1184.27965,289.426801 1185.43236,293.630861 1187.73781,297.554708 C1190.04326,301.478556 1192.98465,305.322268 1196.56207,309.085958 C1200.1395,312.849649 1203.95536,316.493167 1208.00977,320.016622 C1212.06419,323.540077 1215.88005,327.103518 1219.45747,330.707052 C1223.0349,334.310586 1225.97629,338.034181 1228.28174,341.87795 C1230.58719,345.72172 1231.7399,349.725586 1231.7399,353.889669 C1231.7399,361.577208 1229.15624,367.422852 1223.98885,371.426779 C1218.82146,375.430705 1211.70647,377.432638 1202.64366,377.432638 C1197.23778,377.432638 1192.30896,377.032251 1187.85705,376.231466 C1185.4721,375.911152 1183.16669,375.510765 1180.94074,375.030294 L1180.94074,381.276388 Z M1171.13649,301.357245 C1174.6565,302.477251 1178.33647,303.357242 1182.17649,303.997245 C1185.3765,304.797249 1189.01647,305.437243 1193.09649,305.917245 C1197.17651,306.397248 1201.29647,306.637245 1205.45649,306.637245 C1212.81652,306.637245 1216.49649,303.917272 1216.49649,298.477245 C1216.49649,296.397235 1215.3765,294.277256 1213.13649,292.117245 C1210.89648,289.957234 1208.0565,287.557258 1204.61649,284.917245 C1201.17647,282.277232 1197.49651,279.357261 1193.57649,276.157245 C1189.65647,272.957229 1185.9765,269.277266 1182.53649,265.117245 C1179.09647,260.957224 1176.2565,256.277271 1174.01649,251.077245 C1171.77648,245.877219 1170.65649,239.917279 1170.65649,233.197245 C1170.65649,225.677208 1172.01647,219.037274 1174.73649,213.277245 C1177.4565,207.517216 1181.21646,202.717264 1186.01649,198.877245 C1190.81651,195.037226 1196.45645,192.117255 1202.93649,190.117245 C1209.41652,188.117235 1216.33645,187.117245 1223.69649,187.117245 C1227.53651,187.117245 1231.37647,187.317243 1235.21649,187.717245 C1239.05651,188.117247 1242.49647,188.477244 1245.53649,188.797245 C1249.0565,189.277248 1252.49647,189.757243 1255.85649,190.237245 L1255.85649,235.117245 C1254.57648,234.957244 1253.1365,234.797246 1251.53649,234.637245 C1250.25648,234.477244 1248.8165,234.317246 1247.21649,234.157245 C1245.61648,233.997244 1243.9365,233.917245 1242.17649,233.917245 C1241.21648,233.917245 1240.01649,233.957245 1238.57649,234.037245 C1237.13648,234.117246 1235.77649,234.317244 1234.49649,234.637245 C1233.21648,234.957247 1232.09649,235.517241 1231.13649,236.317245 C1230.17648,237.117249 1229.69649,238.237238 1229.69649,239.677245 C1229.69649,240.957252 1230.77648,242.557236 1232.93649,244.477245 C1235.0965,246.397255 1237.73647,248.637232 1240.85649,251.197245 C1243.9765,253.757258 1247.41647,256.717228 1251.17649,260.077245 C1254.93651,263.437262 1258.37647,267.277224 1261.49649,271.597245 C1264.6165,275.917267 1267.25648,280.797218 1269.41649,286.237245 C1271.5765,291.677272 1272.65649,297.757212 1272.65649,304.477245 C1272.65649,311.51728 1271.5365,318.117214 1269.29649,324.277245 C1267.05648,330.437276 1263.57651,335.797222 1258.85649,340.357245 C1254.13646,344.917268 1248.09652,348.517232 1240.73649,351.157245 C1233.37645,353.797258 1224.65654,355.117245 1214.57649,355.117245 C1208.49646,355.117245 1202.85651,354.837248 1197.65649,354.277245 C1192.45646,353.717242 1187.85651,353.037249 1183.85649,352.237245 C1179.21646,351.437241 1174.97651,350.477251 1171.13649,349.357245 L1171.13649,301.357245 Z M130.596783,540.545062 C130.596783,551.5796 128.67002,560.974808 124.816436,568.730969 C120.962852,576.48713 115.704395,582.763928 109.040906,587.561554 C102.377417,592.359179 94.5900835,595.877385 85.6786709,598.116276 C76.7672584,600.355168 67.1735842,601.474597 56.8973607,601.474597 L56.8973607,639.615527 L5.59678269,639.615527 L5.59678269,479.615527 L56.8973607,479.615527 C67.1735842,479.615527 76.7672584,480.734956 85.6786709,482.973848 C94.5900835,485.212739 102.377417,488.730945 109.040906,493.52857 C115.704395,498.326195 120.962852,504.602994 124.816436,512.359155 C128.67002,520.115316 130.596783,529.510524 130.596783,540.545062 Z M97.1696532,590.696197 C97.1696532,583.477226 95.9341583,577.220878 93.4631315,571.926966 C90.9921046,566.633054 87.524748,562.301736 83.0609575,558.932883 C78.5971671,555.56403 73.2964955,553.037428 67.1587836,551.353002 C61.0210718,549.668575 54.3653412,548.826374 47.1913923,548.826374 L20.1696532,548.826374 L20.1696532,670.826374 L26.3870445,670.826374 L26.3870445,632.566019 L47.1913923,632.566019 C54.3653412,632.566019 61.0210718,631.723819 67.1587836,630.039392 C73.2964955,628.354966 78.5971671,625.828364 83.0609575,622.45951 C87.524748,619.090657 90.9921046,614.75934 93.4631315,609.465428 C95.9341583,604.171516 97.1696532,597.915168 97.1696532,590.696197 Z M90.6579166,591.272403 C90.6579166,598.152437 89.4638986,603.91238 87.075827,608.552403 C84.6877554,613.192426 81.5037076,616.872389 77.5235882,619.592403 C73.5434688,622.312416 68.9664001,624.272397 63.7922449,625.472403 C58.6180897,626.672409 53.1654079,627.272403 47.434036,627.272403 L26.6579166,627.272403 L26.6579166,555.272403 L47.434036,555.272403 C53.1654079,555.272403 58.6180897,555.872397 63.7922449,557.072403 C68.9664001,558.272409 73.5434688,560.232389 77.5235882,562.952403 C81.5037076,565.672416 84.6877554,569.35238 87.075827,573.992403 C89.4638986,578.632426 90.6579166,584.392368 90.6579166,591.272403 Z M47.6727687,609.151442 L49.820496,609.151442 C56.5023476,609.151442 61.3147994,607.570377 64.257996,604.408199 C67.2011925,601.246021 68.6727687,596.827146 68.6727687,591.151442 C68.6727687,585.475738 67.2011925,581.056863 64.257996,577.894685 C61.3147994,574.732507 56.5023476,573.151442 49.820496,573.151442 L47.6727687,573.151442 L47.6727687,609.151442 Z M183.184898,634.648213 C189.447125,634.648213 195.54869,634.006536 201.489776,632.723163 L224.370874,671.224149 L231.837337,671.224149 L207.751971,630.798114 C216.422746,627.750104 223.327149,623.057843 228.465386,616.721191 C233.603623,610.384539 236.172703,602.163056 236.172703,592.056497 C236.172703,584.997947 234.807879,578.821809 232.078191,573.527897 C229.348502,568.233985 225.615308,563.782353 220.878496,560.172867 C216.141683,556.563382 210.561963,553.836256 204.139166,551.991408 C197.71637,550.14656 190.731684,549.224149 183.184898,549.224149 L157.172703,549.224149 L157.172703,671.224149 L163.434898,671.224149 L163.434898,634.648213 L183.184898,634.648213 Z M163.660966,628.670178 L163.660966,554.670178 L183.269662,554.670178 C197.776981,554.670178 209.135563,557.884044 217.345749,564.311872 C225.555935,570.7397 229.660966,579.899217 229.660966,591.790699 C229.660966,603.682181 225.555935,612.801525 217.345749,619.149005 C209.135563,625.496485 197.776981,628.670178 183.269662,628.670178 L163.660966,628.670178 Z M142.722937,480.010694 L197.873914,480.010694 C208.104871,480.010694 217.576357,481.37 226.288657,484.088655 C235.000956,486.807309 242.554167,490.80527 248.948515,496.082658 C255.342863,501.360045 260.338372,507.876722 263.935193,515.632882 C267.532014,523.389043 269.330397,532.304496 269.330397,542.379509 C269.330397,550.375551 268.211403,557.172085 265.973381,562.769314 C263.73536,568.366544 261.257587,573.004178 258.539989,576.682358 C255.342815,580.8403 251.746048,584.358505 247.74958,587.23708 L277.722937,640.010694 L217.776223,640.010694 L193.797538,599.470963 L193.797538,640.010694 L142.722937,640.010694 L142.722937,480.010694 Z M183.932593,608.45796 L186.520828,608.45796 C192.481642,608.45796 197.540415,607.079596 201.697298,604.322825 C205.854182,601.566055 207.932593,596.944479 207.932593,590.45796 C207.932593,583.971441 205.854182,579.349866 201.697298,576.593095 C197.540415,573.836325 192.481642,572.45796 186.520828,572.45796 L183.932593,572.45796 L183.932593,608.45796 Z M268.865538,610.004079 C268.865538,598.484021 271.065516,587.60413 275.465538,577.364079 C279.86556,567.124028 285.8655,558.204117 293.465538,550.604079 C301.065576,543.004041 309.985486,537.004101 320.225538,532.604079 C330.465589,528.204057 341.34548,526.004079 352.865538,526.004079 C364.385595,526.004079 375.265486,528.204057 385.505538,532.604079 C395.745589,537.004101 404.6655,543.004041 412.265538,550.604079 C419.865576,558.204117 425.865516,567.124028 430.265538,577.364079 C434.66556,587.60413 436.865538,598.484021 436.865538,610.004079 C436.865538,621.524137 434.66556,632.404028 430.265538,642.644079 C425.865516,652.88413 419.865576,661.804041 412.265538,669.404079 C404.6655,677.004117 395.745589,683.004057 385.505538,687.404079 C375.265486,691.804101 364.385595,694.004079 352.865538,694.004079 C341.34548,694.004079 330.465589,691.804101 320.225538,687.404079 C309.985486,683.004057 301.065576,677.004117 293.465538,669.404079 C285.8655,661.804041 279.86556,652.88413 275.465538,642.644079 C271.065516,632.404028 268.865538,621.524137 268.865538,610.004079 Z M291.729725,610.610188 C291.729725,619.098512 293.331271,627.066205 296.534412,634.513508 C299.737553,641.960811 304.141806,648.487113 309.747303,654.09261 C315.352799,659.698106 321.879101,664.102359 329.326404,667.3055 C336.773707,670.508641 344.741401,672.110188 353.229725,672.110188 C361.718048,672.110188 369.685742,670.508641 377.133045,667.3055 C384.580348,664.102359 391.10665,659.698106 396.712146,654.09261 C402.317643,648.487113 406.721896,641.960811 409.925037,634.513508 C413.128178,627.066205 414.729725,619.098512 414.729725,610.610188 C414.729725,602.121864 413.128178,594.15417 409.925037,586.706868 C406.721896,579.259565 402.317643,572.733263 396.712146,567.127766 C391.10665,561.522269 384.580348,557.118016 377.133045,553.914875 C369.685742,550.711734 361.718048,549.110188 353.229725,549.110188 C344.741401,549.110188 336.773707,550.711734 329.326404,553.914875 C321.879101,557.118016 315.352799,561.522269 309.747303,567.127766 C304.141806,572.733263 299.737553,579.259565 296.534412,586.706868 C293.331271,594.15417 291.729725,602.121864 291.729725,610.610188 Z M319.729725,610.610188 C319.729725,615.236401 320.607097,619.583382 322.361867,623.651259 C324.116638,627.719137 326.509471,631.268506 329.540439,634.299474 C332.571406,637.330441 336.120776,639.723274 340.188653,641.478045 C344.256531,643.232816 348.603511,644.110188 353.229725,644.110188 C357.855938,644.110188 362.202918,643.232816 366.270796,641.478045 C370.338673,639.723274 373.888043,637.330441 376.91901,634.299474 C379.949978,631.268506 382.342811,627.719137 384.097582,623.651259 C385.852352,619.583382 386.729725,615.236401 386.729725,610.610188 C386.729725,605.983974 385.852352,601.636994 384.097582,597.569116 C382.342811,593.501239 379.949978,589.95187 376.91901,586.920902 C373.888043,583.889935 370.338673,581.497101 366.270796,579.742331 C362.202918,577.98756 357.855938,577.110188 353.229725,577.110188 C348.603511,577.110188 344.256531,577.98756 340.188653,579.742331 C336.120776,581.497101 332.571406,583.889935 329.540439,586.920902 C326.509471,589.95187 324.116638,593.501239 322.361867,597.569116 C320.607097,601.636994 319.729725,605.983974 319.729725,610.610188 Z M363.383924,615.050005 C355.731712,615.050005 348.597725,613.602194 341.98175,610.706527 C335.365775,607.81086 329.546992,603.829378 324.525228,598.761962 C319.503464,593.694545 315.557851,587.822865 312.688272,581.146744 C309.818692,574.470624 308.383924,567.271783 308.383924,559.550005 C308.383924,551.828228 309.818692,544.629387 312.688272,537.953266 C315.557851,531.277146 319.503464,525.405465 324.525228,520.338049 C329.546992,515.270632 335.365775,511.28915 341.98175,508.393484 C348.597725,505.497817 355.731712,504.050005 363.383924,504.050005 C371.036136,504.050005 378.170123,505.497817 384.786098,508.393484 C391.402073,511.28915 397.220855,515.270632 402.242619,520.338049 C407.264384,525.405465 411.209996,531.277146 414.079576,537.953266 C416.949156,544.629387 418.383924,551.828228 418.383924,559.550005 C418.383924,567.271783 416.949156,574.470624 414.079576,581.146744 C411.209996,587.822865 407.264384,593.694545 402.242619,598.761962 C397.220855,603.829378 391.402073,607.81086 384.786098,610.706527 C378.170123,613.602194 371.036136,615.050005 363.383924,615.050005 Z M452.246873,601.208 L469.707968,601.208 C474.810779,601.208 478.239179,600.24849 479.993271,598.329439 C481.747362,596.410389 482.624395,593.691776 482.624395,590.173517 L482.624395,479.58881 L535.246873,479.58881 L535.246873,599.04908 C535.246873,613.921718 531.858338,624.396376 525.081167,630.473367 C518.303996,636.550359 507.500549,639.58881 492.670504,639.58881 L452.246873,639.58881 L452.246873,601.208 Z M481.172524,671.286109 C489.050995,671.286109 494.597998,669.561603 497.813701,666.112539 C501.029403,662.663475 502.63723,657.489957 502.63723,650.591829 L502.63723,549.286109 L496.125465,549.286109 L496.125465,650.591829 C496.125465,655.564898 495.24116,659.294644 493.472524,661.781178 C491.703888,664.267713 487.603929,665.510961 481.172524,665.510961 L461.63723,665.510961 L461.63723,671.286109 L481.172524,671.286109 Z M541.823103,530.339259 L636.143103,530.339259 L636.143103,572.318269 L592.943103,572.318269 L592.943103,590.069394 L635.423103,590.069394 L635.423103,629.889484 L592.943103,629.889484 L592.943103,648.360248 L637.823103,648.360248 L637.823103,690.339259 L541.823103,690.339259 L541.823103,530.339259 Z M629.403041,620.883881 L629.403041,615.108733 L581.615431,615.108733 L581.615431,562.410508 L627.013661,562.410508 L627.013661,556.63536 L581.615431,556.63536 L581.615431,504.659029 L629.403041,504.659029 L629.403041,498.883881 L575.403041,498.883881 L575.403041,620.883881 L629.403041,620.883881 Z M678.935598,610.257102 C678.935598,602.569564 680.254462,595.362604 682.89223,588.636008 C685.529999,581.909412 689.246798,576.063768 694.042741,571.098899 C698.838683,566.13403 704.673659,562.210242 711.547843,559.327415 C718.422027,556.444588 726.095419,555.003196 734.568251,555.003196 C738.724734,555.003196 742.441534,555.283466 745.718761,555.844016 C748.995988,556.404566 751.753614,557.085223 753.99172,557.886008 C756.709421,558.686794 759.027425,559.647721 760.945802,560.768821 L764.302945,555.003196 C761.745109,553.882096 759.027449,552.841091 756.149884,551.880149 C753.432183,551.079364 750.314867,550.358668 746.797843,549.71804 C743.280818,549.077411 739.204328,548.757102 734.568251,548.757102 C726.415149,548.757102 718.621859,550.198494 711.188149,553.081321 C703.754438,555.964148 697.200082,560.08813 691.524884,565.453391 C685.849685,570.818652 681.293608,577.304916 677.856516,584.912376 C674.419424,592.519835 672.700904,600.967993 672.700904,610.257102 C672.700904,619.706368 674.339493,628.194564 677.61672,635.721946 C680.893948,643.249327 685.410059,649.695552 691.16519,655.060813 C696.92032,660.426074 703.634539,664.550056 711.308047,667.432883 C718.981555,670.31571 727.134534,671.757102 735.76723,671.757102 C740.563173,671.757102 744.879456,671.356715 748.71621,670.55593 C752.552964,669.755145 755.830156,668.87429 758.547843,667.913352 C761.585273,666.792253 764.302933,665.511016 766.700904,664.069602 L763.343761,658.303977 C761.265519,659.745391 758.867584,660.94655 756.149884,661.907493 C753.751912,662.868435 750.87439,663.709247 747.51723,664.429954 C744.160071,665.15066 740.243443,665.511008 735.76723,665.511008 C726.97467,665.511008 719.061483,664.069617 712.027435,661.18679 C704.993386,658.303963 699.038513,654.380174 694.162639,649.415305 C689.286764,644.450437 685.529999,638.604792 682.89223,631.878196 C680.254462,625.1516 678.935598,617.944641 678.935598,610.257102 Z M658.204438,559.923989 C658.204438,547.123925 660.445034,535.564041 664.926292,525.243989 C669.407551,514.923938 675.489168,506.084026 683.171325,498.723989 C690.853483,491.363953 699.815866,485.724009 710.058743,481.803989 C720.301619,477.88397 731.184513,475.923989 742.707749,475.923989 C751.830311,475.923989 759.952471,476.803981 767.074471,478.563989 C774.196471,480.323998 780.318099,482.323978 785.439537,484.563989 C791.3612,487.124002 796.482562,489.923974 800.803776,492.963989 L775.596822,537.363989 C773.036103,535.44398 770.235358,533.603998 767.194504,531.843989 C764.47374,530.563983 761.232878,529.323995 757.471822,528.123989 C753.710766,526.923983 749.429628,526.323989 744.628279,526.323989 C739.666886,526.323989 735.105673,527.203981 730.944504,528.963989 C726.783336,530.723998 723.142367,533.123974 720.021491,536.163989 C716.900614,539.204005 714.459966,542.763969 712.699471,546.843989 C710.938977,550.92401 710.058743,555.283966 710.058743,559.923989 C710.058743,564.564013 710.978987,568.923969 712.819504,573.003989 C714.660021,577.08401 717.180691,580.643974 720.38159,583.683989 C723.582489,586.724005 727.343489,589.123981 731.664703,590.883989 C735.985917,592.643998 740.707172,593.523989 745.82861,593.523989 C750.950049,593.523989 755.511261,592.883996 759.512385,591.603989 C763.513509,590.323983 766.874402,588.883997 769.595166,587.283989 C772.796065,585.523981 775.59681,583.444001 777.997484,581.043989 L803.204438,625.443989 C798.883224,628.964007 793.761863,632.083976 787.8402,634.803989 C782.718761,637.044001 776.557123,639.12398 769.3551,641.043989 C762.153077,642.963999 753.910886,643.923989 744.628279,643.923989 C732.144773,643.923989 720.621709,641.88401 710.058743,637.803989 C699.495776,633.723969 690.373351,628.004026 682.691193,620.643989 C675.009035,613.283953 669.00744,604.444041 664.686226,594.123989 C660.365012,583.803938 658.204438,572.404052 658.204438,559.923989 Z M830.627475,521.459265 L801.065243,521.459265 L801.065243,479.480254 L913.065243,479.480254 L913.065243,521.459265 L883.503011,521.459265 L883.503011,639.480254 L830.627475,639.480254 L830.627475,521.459265 Z M850.277966,670.570141 L850.277966,554.345289 L884.652966,554.345289 L884.652966,548.570141 L809.652966,548.570141 L809.652966,554.345289 L844.027966,554.345289 L844.027966,670.570141 L850.277966,670.570141 Z" id="CHAMPIONSPROJECT" fill="#FFFFFF" fill-rule="nonzero" transform="translate(637.552346, 440.560662) rotate(-14.000000) translate(-637.552346, -440.560662) "></path>
    </g>
</svg>