<?xml version="1.0" encoding="UTF-8"?>
<svg width="470px" height="470px" viewBox="0 0 470 470" version="1.1" xmlns="http://www.w3.org/2000/svg" xmlns:xlink="http://www.w3.org/1999/xlink">
    <!-- Generator: Sketch 54.1 (76490) - https://sketchapp.com -->
    <title>menu</title>
    <desc>Created with Sketch.</desc>
    <g id="Page-1" stroke="none" stroke-width="1" fill="none" fill-rule="evenodd">
        <g id="menu" fill="#FFFFFF" fill-rule="nonzero">
            <path d="M53.333,106.667 L416,106.667 C445.417,106.667 469.333,82.74 469.333,53.334 C469.333,23.928 445.417,0 416,0 L53.333,0 C23.917,0 0,23.927 0,53.333 C0,82.739 23.917,106.667 53.333,106.667 Z M53.333,21.333 L416,21.333 C433.646,21.333 448,35.687 448,53.333 C448,70.979 433.646,85.333 416,85.333 L53.333,85.333 C35.687,85.333 21.333,70.979 21.333,53.333 C21.333,35.687 35.687,21.333 53.333,21.333 Z" id="Shape"></path>
            <path d="M416,181.333 L53.333,181.333 C23.917,181.333 0,205.26 0,234.667 C0,264.074 23.917,288 53.333,288 L416,288 C445.417,288 469.333,264.073 469.333,234.667 C469.333,205.261 445.417,181.333 416,181.333 Z M416,266.667 L53.333,266.667 C35.687,266.667 21.333,252.313 21.333,234.667 C21.333,217.021 35.687,202.667 53.333,202.667 L416,202.667 C433.646,202.667 448,217.021 448,234.667 C448,252.313 433.646,266.667 416,266.667 Z" id="Shape"></path>
            <path d="M416,362.667 L53.333,362.667 C23.917,362.667 0,386.594 0,416 C0,445.406 23.917,469.333 53.333,469.333 L416,469.333 C445.417,469.333 469.333,445.406 469.333,416 C469.333,386.594 445.417,362.667 416,362.667 Z M416,448 L53.333,448 C35.687,448 21.333,433.646 21.333,416 C21.333,398.354 35.687,384 53.333,384 L416,384 C433.646,384 448,398.354 448,416 C448,433.646 433.646,448 416,448 Z" id="Shape"></path>
        </g>
    </g>
</svg>